<svg width="43" height="43" viewBox="0 0 43 43" fill="none" xmlns="http://www.w3.org/2000/svg">
<path d="M38.9345 23.6583C38.4587 23.6583 38.0142 23.8398 37.6825 24.1403C37.3507 23.8398 36.9062 23.6583 36.4304 23.6583C35.9547 23.6583 35.5102 23.8398 35.1784 24.1403C34.8466 23.8398 34.4022 23.6583 33.9264 23.6583C33.7073 23.6583 33.4945 23.6958 33.3004 23.7709V19.2762C33.3004 18.2433 32.4553 17.3982 31.4224 17.3982C30.3895 17.3982 29.5444 18.2433 29.5444 19.2762V27.4143H28.9183C27.8854 27.4143 27.0403 28.2594 27.0403 29.2923V31.1704C27.0403 31.2768 27.0716 31.3832 27.1217 31.4834L28.3362 33.6055C28.1296 33.5242 27.923 33.4616 27.7039 33.4115L21.4063 31.9278V29.4551C24.2233 27.9652 26.1952 25.0793 26.3955 21.7239C27.8354 21.4359 28.9183 20.1714 28.9183 18.6502C28.9183 18.1807 28.8119 17.73 28.6116 17.3105C28.7931 17.1979 28.9183 16.9975 28.9183 16.7722V13.0161C28.9183 8.35863 25.2687 4.53998 20.6801 4.26454C20.4234 3.53211 19.7223 3 18.9022 3H12.0161C7.18335 3 3.25202 6.93133 3.25202 11.7641V12.3901C3.25202 14.2494 4.27241 15.877 5.78735 16.7409C5.36166 17.2855 5.13004 17.9553 5.13004 18.6502C5.13004 20.1714 6.21303 21.4359 7.65285 21.7239C7.85318 25.0793 9.8251 27.9652 12.6421 29.4551V31.9278L6.3445 33.4115C3.78412 34.0124 2 36.2661 2 38.8953V39.9345C2 40.2788 2.2817 40.5605 2.62601 40.5605H40.1865C40.5308 40.5605 40.8125 40.2788 40.8125 39.9345V25.5363C40.8125 24.5034 39.9674 23.6583 38.9345 23.6583V23.6583ZM35.8044 25.5363C35.8044 25.192 36.0861 24.9103 36.4304 24.9103C36.7747 24.9103 37.0565 25.192 37.0565 25.5363V28.0403C37.0565 28.3846 36.7747 28.6663 36.4304 28.6663C36.0861 28.6663 35.8044 28.3846 35.8044 28.0403V25.5363ZM33.3004 25.5363C33.3004 25.192 33.5821 24.9103 33.9264 24.9103C34.2707 24.9103 34.5524 25.192 34.5524 25.5363V28.0403C34.5524 28.3846 34.2707 28.6663 33.9264 28.6663C33.5821 28.6663 33.3004 28.3846 33.3004 28.0403V25.5363ZM30.7964 19.2762C30.7964 18.9319 31.0781 18.6502 31.4224 18.6502C31.7667 18.6502 32.0484 18.9319 32.0484 19.2762V27.4143H30.7964V19.2762ZM26.4143 20.4155V17.3982H27.1843C27.4973 17.7487 27.6663 18.1932 27.6663 18.6502C27.6663 19.464 27.1405 20.1589 26.4143 20.4155ZM7.63407 20.4155C6.9079 20.1589 6.38206 19.464 6.38206 18.6502C6.38206 18.1557 6.57612 17.6799 6.93294 17.3231C6.95798 17.2918 6.98928 17.2667 7.02059 17.2417C7.22091 17.2918 7.42749 17.3356 7.63407 17.3606V20.4155ZM4.50403 12.3901V11.7641C4.50403 7.61994 7.87196 4.25202 12.0161 4.25202H18.9022C19.2465 4.25202 19.5282 4.53372 19.5282 4.87802C19.5282 5.22233 19.8099 5.50403 20.1542 5.50403C24.2984 5.50403 27.6663 8.87196 27.6663 13.0161V16.1462H25.7883C23.0276 16.1462 20.7802 13.8988 20.7802 11.1381C20.7802 10.1052 19.9351 9.26008 18.9022 9.26008C18.5579 9.26008 18.2762 9.54178 18.2762 9.88609C18.2762 9.96121 18.2512 11.7641 17.0242 11.7641H12.5795C11.5779 11.7641 10.7641 12.5842 10.7641 13.6421C10.7641 15.0256 9.64356 16.1462 8.26008 16.1462C6.18799 16.1462 4.50403 14.4622 4.50403 12.3901V12.3901ZM8.88609 21.1542V17.3418C10.664 17.0476 12.0161 15.4951 12.0161 13.5921C12.0161 13.2728 12.2665 13.0161 12.5795 13.0161H17.0242C18.5266 13.0161 19.1902 11.833 19.4218 10.7938C19.4907 10.894 19.5282 11.0129 19.5282 11.1381C19.5282 14.3746 22.0072 17.0539 25.1623 17.3669V21.1542C25.1623 25.6427 21.5127 29.2923 17.0242 29.2923C12.5357 29.2923 8.88609 25.6427 8.88609 21.1542ZM17.0242 35.1893L17.7003 35.8654L17.0242 36.5478L16.3481 35.8654L17.0242 35.1893ZM17.0242 33.5993L13.8942 32.0343V30.006C14.8707 30.3566 15.9224 30.5444 17.0242 30.5444C18.126 30.5444 19.1777 30.3566 20.1542 30.006V32.0343L17.0242 33.5993ZM3.25202 39.3085V38.8953C3.25202 36.8483 4.64175 35.0954 6.63246 34.6259L8.00342 34.3067L9.42446 35.7214L8.91739 37.2301C8.81723 37.5369 8.96121 37.8749 9.25543 38.0001L12.1977 39.3085H3.25202ZM10.2883 37.0924L10.7328 35.7527C10.8079 35.5274 10.7516 35.277 10.5826 35.108L9.43698 33.9624L12.8112 33.1736L14.2259 38.839L10.2883 37.0924ZM15.2338 37.6934L15.0898 37.1237L15.4592 36.7544L15.5218 36.817L15.2338 37.6934ZM14.733 35.7027L14.2072 33.5868L15.9662 34.4694L14.733 35.7027ZM16.0163 39.3085L16.5171 37.8123L16.5797 37.8749C16.7049 37.9938 16.8614 38.0564 17.0242 38.0564C17.187 38.0564 17.3435 37.9938 17.4687 37.8749L17.5313 37.8123L18.0321 39.3085H16.0163ZM18.8146 37.6934L18.5266 36.817L18.5892 36.7544L18.9586 37.1237L18.8146 37.6934ZM18.0821 34.4694L19.8412 33.5868L19.3154 35.7027L18.0821 34.4694ZM21.2372 33.1736L24.6114 33.9624L23.4658 35.108C23.2968 35.277 23.2405 35.5274 23.3156 35.7527L23.76 37.0924L19.8224 38.839L21.2372 33.1736ZM29.5444 39.3085H21.8507L24.793 38.0001C25.0872 37.8749 25.2312 37.5369 25.131 37.2301L24.6239 35.7214L26.045 34.3067L27.4159 34.6259C28.2423 34.8262 28.9747 35.2457 29.5444 35.8404V39.3085ZM39.5605 39.3085H30.7964V35.5524C30.7964 35.446 30.7651 35.3396 30.715 35.2394L28.2923 31.0013V29.2923C28.2923 28.948 28.574 28.6663 28.9183 28.6663H31.942C31.6853 29.3925 30.9842 29.9183 30.1704 29.9183H29.5444V31.1704H30.1704C31.3285 31.1704 32.3364 30.5444 32.881 29.6053C33.1815 29.7994 33.5445 29.9183 33.9264 29.9183C34.4022 29.9183 34.8466 29.7368 35.1784 29.4363C35.5102 29.7368 35.9547 29.9183 36.4304 29.9183C36.9062 29.9183 37.3507 29.7368 37.6825 29.4363C38.0142 29.7368 38.4587 29.9183 38.9345 29.9183C39.1536 29.9183 39.3664 29.8808 39.5605 29.8057V39.3085ZM39.5605 28.0403C39.5605 28.3846 39.2788 28.6663 38.9345 28.6663C38.5902 28.6663 38.3085 28.3846 38.3085 28.0403V25.5363C38.3085 25.192 38.5902 24.9103 38.9345 24.9103C39.2788 24.9103 39.5605 25.192 39.5605 25.5363V28.0403Z" fill="#1EC9FF"/>
<path d="M13.2681 20.5282C13.9596 20.5282 14.5201 19.9677 14.5201 19.2762C14.5201 18.5847 13.9596 18.0242 13.2681 18.0242C12.5767 18.0242 12.0161 18.5847 12.0161 19.2762C12.0161 19.9677 12.5767 20.5282 13.2681 20.5282Z" fill="#1EC9FF"/>
<path d="M20.7803 20.5282C21.4718 20.5282 22.0324 19.9677 22.0324 19.2762C22.0324 18.5847 21.4718 18.0242 20.7803 18.0242C20.0889 18.0242 19.5283 18.5847 19.5283 19.2762C19.5283 19.9677 20.0889 20.5282 20.7803 20.5282Z" fill="#1EC9FF"/>
<path d="M20.0102 23.4323L19.0461 22.6329C18.4978 23.294 17.7797 23.6583 17.0241 23.6583C16.2686 23.6583 15.5505 23.294 15.0021 22.6323L14.0381 23.4317C14.8287 24.3851 15.8892 24.9103 17.0241 24.9103C18.1591 24.9103 19.2196 24.3851 20.0102 23.4323Z" fill="#1EC9FF"/>
<path d="M33.9263 6.75604H37.0564V7.51915L35.0262 8.02747C34.7477 8.09695 34.5523 8.34673 34.5523 8.63407V9.88608H35.8044V9.12298L37.8345 8.61466C38.1124 8.54518 38.3084 8.2954 38.3084 8.00806V6.13004C38.3084 5.78385 38.0279 5.50403 37.6824 5.50403H33.3003C32.9548 5.50403 32.6743 5.78385 32.6743 6.13004V7.38205H33.9263V6.75604Z" fill="#1EC9FF"/>
<path d="M34.5522 11.1381H35.8043V12.3901H34.5522V11.1381Z" fill="#1EC9FF"/>
<path d="M40.1865 3H30.7964C30.4509 3 30.1704 3.27983 30.1704 3.62601V14.2681C30.1704 14.6143 30.4509 14.8942 30.7964 14.8942H33.9265V16.7722C33.9265 17.0032 34.0535 17.2154 34.257 17.3243C34.3496 17.3738 34.4511 17.3982 34.5525 17.3982C34.6739 17.3982 34.7947 17.3625 34.8999 17.293L38.4982 14.8942H40.1865C40.5321 14.8942 40.8125 14.6143 40.8125 14.2681V3.62601C40.8125 3.27983 40.5321 3 40.1865 3ZM39.5605 13.6421H38.3085C38.1852 13.6421 38.0637 13.6791 37.9611 13.7473L35.1785 15.6028V14.2681C35.1785 13.922 34.898 13.6421 34.5525 13.6421H31.4224V4.25202H39.5605V13.6421Z" fill="#1EC9FF"/>
</svg>
