<svg width="43" height="43" viewBox="0 0 43 43" fill="none" xmlns="http://www.w3.org/2000/svg">
<path d="M38.9421 17.8333C40.1894 16.883 41 15.3861 41 13.7C41 10.8329 38.6671 8.5 35.8 8.5C32.9328 8.5 30.6 10.8329 30.6 13.7C30.6 15.2535 31.2884 16.6464 32.3719 17.6H28.9191L24.5595 13.2404C24.3054 12.9863 23.8946 12.9863 23.6404 13.2404L21.0404 15.8404C20.7863 16.0946 20.7863 16.5054 21.0404 16.7596L26.8904 22.6095C27.012 22.7317 27.1771 22.8 27.35 22.8H32.55V27.35H29.3H21.4142L24.6408 22.5107L23.5592 21.7899L19.8522 27.35H18.25V24.1C18.25 23.7405 17.9594 23.45 17.6 23.45H12.4V20.85C12.4 19.4798 11.5446 18.3104 10.3421 17.8333C11.5894 16.883 12.4 15.3861 12.4 13.7C12.4 10.8329 10.0671 8.5 7.2 8.5C4.33285 8.5 2 10.8329 2 13.7C2 15.3861 2.81055 16.883 4.0579 17.8333C2.8554 18.3104 2 19.4798 2 20.85V29.95C2 31.742 3.45795 33.2 5.25 33.2V41H6.55V33.2H11.1V40.35C11.1 40.7094 11.3905 41 11.75 41H16.3C16.6594 41 16.95 40.7094 16.95 40.35V30.6C16.95 29.8687 16.7075 29.1934 16.2987 28.65H16.95H17.6H20.85V39.7H18.25V41H24.75V39.7H22.15V28.65H26.7169C26.3041 29.1947 26.05 29.8655 26.05 30.6V40.35C26.05 40.7094 26.3405 41 26.7 41H31.25C31.6094 41 31.9 40.7094 31.9 40.35V33.2H36.45V41H37.75V33.2C39.542 33.2 41 31.742 41 29.95V20.85C41 19.4798 40.1446 18.3104 38.9421 17.8333ZM3.3 13.7C3.3 11.5491 5.04915 9.8 7.2 9.8C9.35085 9.8 11.1 11.5491 11.1 13.7C11.1 15.8508 9.35085 17.6 7.2 17.6C5.04915 17.6 3.3 15.8508 3.3 13.7ZM16.95 27.35H8.5V22.15H7.2V28C7.2 28.3594 7.49055 28.65 7.85 28.65H13.7C14.7751 28.65 15.65 29.5249 15.65 30.6V39.7H12.4V32.55C12.4 32.1905 12.1094 31.9 11.75 31.9H5.25C4.1749 31.9 3.3 31.0251 3.3 29.95V20.85C3.3 19.7749 4.1749 18.9 5.25 18.9H9.15C10.2251 18.9 11.1 19.7749 11.1 20.85V24.1C11.1 24.4594 11.3905 24.75 11.75 24.75H16.95V27.35ZM31.9 13.7C31.9 11.5491 33.6491 9.8 35.8 9.8C37.9508 9.8 39.7 11.5491 39.7 13.7C39.7 15.8508 37.9508 17.6 35.8 17.6C33.6491 17.6 31.9 15.8508 31.9 13.7ZM39.7 29.95C39.7 31.0251 38.8251 31.9 37.75 31.9H31.25C30.8905 31.9 30.6 32.1905 30.6 32.55V39.7H27.35V30.6C27.35 29.5249 28.2249 28.65 29.3 28.65H33.2C33.5594 28.65 33.85 28.3594 33.85 28V22.15C33.85 21.7905 33.5594 21.5 33.2 21.5H27.6191L22.4191 16.3L24.1 14.6191L28.1904 18.7096C28.312 18.8318 28.4771 18.9 28.65 18.9H37.75C38.8251 18.9 39.7 19.7749 39.7 20.85V29.95Z" fill="#1EC9FF"/>
<path d="M28.0003 2H15.0003C13.9252 2 13.0503 2.8749 13.0503 3.95V9.15C13.0503 10.2251 13.9252 11.1 15.0003 11.1H15.6503V15C15.6503 15.2626 15.8082 15.5005 16.0513 15.6006C16.1319 15.6344 16.2164 15.65 16.3003 15.65C16.4693 15.65 16.6357 15.5837 16.7598 15.4596L21.1194 11.1H28.0003C29.0754 11.1 29.9503 10.2251 29.9503 9.15V3.95C29.9503 2.8749 29.0754 2 28.0003 2ZM28.6503 9.15C28.6503 9.5088 28.3591 9.8 28.0003 9.8H20.8503C20.6774 9.8 20.5123 9.86825 20.3907 9.99045L16.9503 13.4309V10.45C16.9503 10.0906 16.6597 9.8 16.3003 9.8H15.0003C14.6415 9.8 14.3503 9.5088 14.3503 9.15V3.95C14.3503 3.5912 14.6415 3.3 15.0003 3.3H28.0003C28.3591 3.3 28.6503 3.5912 28.6503 3.95V9.15Z" fill="#1EC9FF"/>
<path d="M19.5494 4.60004H15.6494V5.90004H19.5494V4.60004Z" fill="#1EC9FF"/>
<path d="M27.3494 7.19998H15.6494V8.49998H27.3494V7.19998Z" fill="#1EC9FF"/>
<path d="M27.3506 4.60004H20.8506V5.90004H27.3506V4.60004Z" fill="#1EC9FF"/>
</svg>
