<svg width="43" height="43" viewBox="0 0 43 43" fill="none" xmlns="http://www.w3.org/2000/svg">
<path d="M22.2257 13.8876C21.9922 14.3546 21.5227 14.6451 20.9999 14.6451C20.4771 14.6451 20.0076 14.3546 19.7741 13.8876L19.7098 13.7582L18.6133 14.3068L18.6776 14.4355C19.1202 15.3211 20.0101 15.8709 20.9999 15.8709C21.9898 15.8709 22.8797 15.3211 23.3222 14.4355L23.3866 14.3062L22.2901 13.7576L22.2257 13.8876Z" fill="#1EC9FF"/>
<path d="M38.26 27.5793C39.3227 26.6789 40 25.3373 40 23.8387C40 21.0972 37.7359 18.8736 34.9834 18.9367C34.4066 15.7515 31.6572 13.4194 28.3548 13.4194C28.3254 13.4194 28.296 13.423 28.2666 13.4236C28.3187 13.2251 28.3548 13.021 28.3548 12.8065C28.3548 12.2824 28.1863 11.7982 27.905 11.3992L27.9117 11.3864C28.2016 10.8059 28.3548 10.1563 28.3548 9.50781C28.3548 7.90629 27.4649 6.46658 26.0325 5.7501L25.8965 5.68206C25.8597 4.19761 24.6462 3 23.1531 3H19.1613C16.8831 3 15.0144 4.78416 14.8789 7.02861L14.7594 7.14813C14.0411 7.86645 13.6452 8.82136 13.6452 9.83755C13.6452 10.247 13.7101 10.6515 13.8401 11.0401L14.0074 11.5414C13.9859 11.577 13.9675 11.6137 13.9479 11.6505C13.6445 11.6088 13.3393 11.5806 13.0323 11.5806C9.47558 11.5806 6.56123 14.3504 6.31423 17.8457C3.84913 18.3961 2 20.5971 2 23.2258C2 26.267 4.47429 28.7419 7.51613 28.7419H19.1613V32.8662L20.837 33.4031C20.9896 33.8775 21.1784 34.3347 21.4002 34.7692L20.5961 36.3315L23.8285 39.564L25.3908 38.7598C25.826 38.9823 26.2832 39.1705 26.757 39.3231L27.2951 41H31.8668L32.4037 39.3243C32.8775 39.1717 33.3353 38.9835 33.7698 38.7611L35.3321 39.5652L38.5646 36.3327L37.7605 34.7705C37.9823 34.3359 38.1711 33.8787 38.3237 33.4043L40 32.8662V28.2945L38.3243 27.7576C38.3047 27.6975 38.2802 27.6387 38.26 27.5793V27.5793ZM33.8452 19.6569L33.9041 20.3041L34.547 20.2079C34.7566 20.176 34.9313 20.1613 35.0968 20.1613C37.1249 20.1613 38.7742 21.8106 38.7742 23.8387C38.7742 25.8668 37.1249 27.5161 35.0968 27.5161H31.4194V25.0143C31.4194 23.3018 30.7525 21.6917 29.542 20.4812C28.5681 19.5073 27.2804 18.8632 25.9161 18.6683L23.937 18.3857L23.6986 17.5093C24.5199 16.9656 25.1671 16.1817 25.5422 15.2581H25.9032C26.4708 15.2581 26.9868 15.0564 27.4024 14.7322C27.7162 14.6776 28.0349 14.6452 28.3548 14.6452C31.2263 14.6452 33.586 16.7995 33.8452 19.6569V19.6569ZM35.0968 30.5806C35.0968 33.6219 32.6225 36.0968 29.5806 36.0968C26.5388 36.0968 24.0645 33.6219 24.0645 30.5806C24.0645 29.9463 24.1761 29.3303 24.3845 28.7419H25.7059C25.4356 29.3119 25.2903 29.9377 25.2903 30.5806C25.2903 32.9465 27.2155 34.871 29.5806 34.871C31.9458 34.871 33.871 32.9465 33.871 30.5806C33.871 29.9383 33.7257 29.3119 33.4554 28.7419H34.7768C34.9852 29.3303 35.0968 29.9463 35.0968 30.5806ZM14.2581 23.8387V27.5161H11.8065V25.0143C11.8065 23.6291 12.3458 22.3273 13.3252 21.3485C14.1128 20.5609 15.1547 20.0399 16.258 19.8818L17.0174 19.7733L18.1923 25.0615L21 22.2537L23.8077 25.0615L24.9826 19.7733L25.742 19.8818C26.8453 20.0393 27.8872 20.5603 28.6748 21.3485C29.6542 22.3273 30.1935 23.6291 30.1935 25.0143V27.5161H27.7419V23.8387H26.5161V27.5161H15.4839V23.8387H14.2581ZM23.6686 19.5858L23.766 19.5999L23.0955 22.6166L21.8666 21.3871L23.6686 19.5858ZM21 17.0968C18.9719 17.0968 17.3226 15.4475 17.3226 13.4194V10.4995C17.3226 9.98342 17.5647 9.51148 17.9686 9.21239C19.5775 9.96074 21.3536 10.3548 23.128 10.3548H24.0645C24.4028 10.3548 24.6774 10.63 24.6774 10.9677V13.4194C24.6774 15.4475 23.0281 17.0968 21 17.0968V17.0968ZM21 18.3226C21.5522 18.3226 22.0818 18.2264 22.5776 18.0572L22.767 18.7535L21 20.5205L19.233 18.7535L19.4224 18.0572C19.9182 18.2264 20.4478 18.3226 21 18.3226ZM18.3314 19.5858L20.1334 21.3871L18.9045 22.616L18.234 19.5993L18.3314 19.5858ZM32.0163 28.7419C32.4165 29.2715 32.6452 29.9114 32.6452 30.5806C32.6452 32.2704 31.2704 33.6452 29.5806 33.6452C27.8909 33.6452 26.5161 32.2704 26.5161 30.5806C26.5161 29.9107 26.7447 29.2715 27.145 28.7419H32.0163ZM25.9032 13.4194V11.5806C26.5793 11.5806 27.129 12.1304 27.129 12.8065C27.129 13.4825 26.5793 14.0323 25.9032 14.0323H25.8609C25.8861 13.8312 25.9032 13.6271 25.9032 13.4194ZM15.6255 8.01539L16.0968 7.54406V7.29032C16.0968 5.60055 17.4715 4.22581 19.1613 4.22581H23.1531C23.9934 4.22581 24.6774 4.90981 24.6774 5.7501C24.6774 6.40713 24.2582 6.98877 23.6361 7.19594L23.2585 7.32158L23.6453 8.48426L24.0235 8.35861C24.7491 8.11652 25.3173 7.59187 25.6317 6.933C26.5566 7.46377 27.129 8.43155 27.129 9.50781C27.129 9.87494 27.0567 10.2415 26.9237 10.5841C26.6117 10.4406 26.2685 10.3548 25.9032 10.3548H25.7905C25.5367 9.64326 24.8625 9.12903 24.0645 9.12903H23.128C21.4296 9.12903 19.7288 8.72758 18.2101 7.96758L17.9355 7.8309L17.6615 7.96819C16.7403 8.42848 16.1581 9.33497 16.1066 10.3548H16.0968C15.6996 10.3548 15.3294 10.459 14.9972 10.6276C14.9145 10.372 14.871 10.1066 14.871 9.83755C14.871 9.14865 15.1394 8.50203 15.6255 8.01539V8.01539ZM16.0968 11.5806V13.4194C16.0968 13.6271 16.1139 13.8312 16.1391 14.0323H16.0968C15.4207 14.0323 14.871 13.4825 14.871 12.8065C14.871 12.1304 15.4207 11.5806 16.0968 11.5806ZM3.22581 23.2258C3.22581 20.86 5.15094 18.9355 7.51613 18.9355C8.27858 18.9355 9.02755 19.1384 9.68152 19.5214L10.3018 18.4635C9.47006 17.9763 8.52006 17.7183 7.55168 17.7115C7.8569 14.9571 10.197 12.8065 13.0323 12.8065C13.2382 12.8065 13.4441 12.8193 13.6488 12.8426C13.6685 14.1775 14.757 15.2581 16.0968 15.2581H16.4578C16.8329 16.1817 17.4801 16.9656 18.3014 17.5093L18.063 18.3857L16.0839 18.6683C14.7196 18.8632 13.4319 19.5073 12.458 20.4812C11.2475 21.6917 10.5806 23.3018 10.5806 25.0143V27.5161H7.51613C5.15094 27.5161 3.22581 25.5916 3.22581 23.2258V23.2258ZM38.7742 31.9725L37.3302 32.4353L37.2407 32.7522C37.0691 33.3583 36.8313 33.9345 36.5346 34.4658L36.3735 34.7527L37.066 36.098L35.0974 38.066L33.7521 37.3741L33.4652 37.5346C32.9332 37.8325 32.3565 38.0709 31.7509 38.2413L31.4341 38.3308L30.9725 39.7742H28.1894L27.7272 38.3302L27.4104 38.2407C26.8048 38.0697 26.2281 37.8319 25.6961 37.534L25.4092 37.3735L24.0639 38.0654L22.0953 36.0974L22.7878 34.7521L22.6266 34.4652C22.33 33.9338 22.0922 33.3577 21.9206 32.7515L21.8311 32.4347L20.3871 31.9725V28.7419H23.0998C22.9313 29.3371 22.8387 29.9512 22.8387 30.5806C22.8387 34.2979 25.8634 37.3226 29.5806 37.3226C33.2979 37.3226 36.3226 34.2979 36.3226 30.5806C36.3226 29.9187 36.2233 29.2727 36.037 28.6494C36.4427 28.5703 36.8282 28.4379 37.1917 28.2657C37.2064 28.3141 37.2272 28.3613 37.2407 28.4097L37.3302 28.7266L38.7742 29.1887V31.9725Z" fill="#1EC9FF"/>
</svg>
