<svg width="43" height="43" viewBox="0 0 43 43" fill="none" xmlns="http://www.w3.org/2000/svg">
<path d="M18.0963 18.9796V18.3506H16.8382V18.9796C16.8382 19.6735 16.274 20.2377 15.5801 20.2377C14.8863 20.2377 14.322 19.6735 14.322 18.9796V18.3506H13.064V18.9796C13.064 20.3673 14.1925 21.4958 15.5801 21.4958C16.9678 21.4958 18.0963 20.3673 18.0963 18.9796Z" fill="#1EC9FF"/>
<path d="M34.4518 8.91492C30.2894 8.91492 26.9033 12.301 26.9033 16.4634C26.9033 20.6257 30.2894 24.0119 34.4518 24.0119C38.6141 24.0119 42.0003 20.6257 42.0003 16.4634C42.0003 12.301 38.6141 8.91492 34.4518 8.91492ZM34.4518 22.7538C30.9833 22.7538 28.1614 19.9319 28.1614 16.4634C28.1614 12.9949 30.9833 10.173 34.4518 10.173C37.9203 10.173 40.7422 12.9949 40.7422 16.4634C40.7422 19.9319 37.9203 22.7538 34.4518 22.7538Z" fill="#1EC9FF"/>
<path d="M28.1617 30.3024C28.8555 30.3024 29.4197 30.8666 29.4197 31.5604H30.6778C30.6778 30.391 29.8727 29.4148 28.7907 29.1336V27.7862H27.5326V29.1336C26.4507 29.4148 25.6455 30.391 25.6455 31.5604C25.6455 32.9481 26.774 34.0766 28.1617 34.0766C28.8555 34.0766 29.4197 34.6408 29.4197 35.3347C29.4197 36.0285 28.8555 36.5927 28.1617 36.5927C27.4678 36.5927 26.9036 36.0285 26.9036 35.3347H25.6455C25.6455 36.5041 26.4507 37.4803 27.5326 37.7615V39.1089H28.7907V37.7615C29.8727 37.4803 30.6778 36.5041 30.6778 35.3347C30.6778 33.947 29.5493 32.8185 28.1617 32.8185C27.4678 32.8185 26.9036 32.2543 26.9036 31.5604C26.9036 30.8666 27.4678 30.3024 28.1617 30.3024Z" fill="#1EC9FF"/>
<path d="M28.1616 25.27C27.352 25.27 26.5707 25.3927 25.8316 25.6128C24.2445 23.8848 22.0561 22.8683 19.7117 22.774C21.4321 21.6436 22.6594 19.8301 23.0154 17.7221H23.1293C24.5169 17.7221 25.6454 16.5936 25.6454 15.206C25.6454 13.9938 24.7836 12.9792 23.6407 12.742L24.2427 11.8394C25.1604 10.4618 25.6454 8.85898 25.6454 7.20461C25.6454 4.67964 23.5903 2.62457 21.0654 2.62457C20.2005 2.62457 19.3877 2.96111 18.7744 3.57316L18.726 3.6216L18.6769 3.57254C18.0649 2.96111 17.2515 2.62457 16.3866 2.62457H10.9737C7.96438 2.62457 5.51616 5.07279 5.51616 8.08212C5.51616 9.16344 5.83319 10.2102 6.43267 11.1091L7.52091 12.7414C6.37794 12.9786 5.51616 13.9932 5.51616 15.2054C5.51616 16.593 6.64465 17.7215 8.03231 17.7215H8.14617C8.50221 19.8288 9.7282 21.6417 11.4474 22.7721C6.75851 22.9627 3 26.8256 3 31.5604V40.996C3 41.3438 3.28181 41.625 3.62904 41.625H28.1616C32.6705 41.625 36.3391 37.9565 36.3391 33.4475C36.3391 28.9385 32.6705 25.27 28.1616 25.27ZM12.2148 24.0119L14.6391 25.9512L13.237 27.3527L11.5725 24.0232C11.6505 24.0213 11.7273 24.0119 11.8066 24.0119H12.2148ZM16.9326 24.0119L15.5808 25.0939L14.229 24.0119H16.9326ZM14.7555 29.109L15.1354 29.489C15.3814 29.7349 15.7789 29.7349 16.0249 29.489L16.4048 29.109L17.4258 35.7448L15.5808 37.5904L13.7346 35.7441L14.7555 29.109ZM15.5808 28.1548L14.8976 27.4716L15.5808 26.7885L16.2639 27.4716L15.5808 28.1548ZM16.5225 25.9512L18.9468 24.0119H19.355C19.4337 24.0119 19.5104 24.0226 19.589 24.0245L17.9246 27.3527L16.5225 25.9512ZM16.8389 12.6892C16.4916 12.6892 16.2098 12.9704 16.2098 13.3182V13.9473H14.9517V13.3182C14.9517 12.9704 14.6699 12.6892 14.3227 12.6892H9.29039V11.4311H11.8066C13.4062 11.4311 14.8096 10.5737 15.5808 9.29428C16.352 10.5737 17.7554 11.4311 19.355 11.4311H21.8712V12.6892H16.8389ZM19.9841 13.9473V15.2054H17.4679V13.9473H19.9841ZM13.6937 13.9473V15.2054H11.1775V13.9473H13.6937ZM24.3873 15.2054C24.3873 15.8992 23.8231 16.4634 23.1293 16.4634V13.9473C23.8231 13.9473 24.3873 14.5115 24.3873 15.2054ZM7.47939 10.4115C7.0183 9.71888 6.77424 8.91371 6.77424 8.08212C6.77424 5.76662 8.65821 3.88265 10.9737 3.88265H16.3866C16.9156 3.88265 17.4132 4.08835 17.7875 4.46263L18.2813 4.95642C18.5178 5.19231 18.9348 5.19231 19.1713 4.95642L19.6645 4.46325C20.0388 4.08835 20.5364 3.88265 21.0654 3.88265C22.8971 3.88265 24.3873 5.37285 24.3873 7.20461C24.3873 8.60988 23.9753 9.97112 23.1953 11.1411L23.1293 11.2405V10.8021C23.1293 10.4542 22.8474 10.173 22.5002 10.173H19.355C17.6208 10.173 16.2098 8.76211 16.2098 7.02785C16.2098 6.67999 15.928 6.39881 15.5808 6.39881C15.2336 6.39881 14.9517 6.67999 14.9517 7.02785C14.9517 8.76211 13.5408 10.173 11.8066 10.173H8.66135C8.31412 10.173 8.03231 10.4542 8.03231 10.8021V11.2405L7.47939 10.4115ZM6.77424 15.2054C6.77424 14.5115 7.33848 13.9473 8.03231 13.9473V16.4634C7.33848 16.4634 6.77424 15.8992 6.77424 15.2054ZM9.29039 16.4634V13.9473H9.91943V15.8344C9.91943 16.1823 10.2012 16.4634 10.5485 16.4634H14.3227C14.6699 16.4634 14.9517 16.1823 14.9517 15.8344V15.2054H16.2098V15.8344C16.2098 16.1823 16.4916 16.4634 16.8389 16.4634H20.6131C20.9603 16.4634 21.2421 16.1823 21.2421 15.8344V13.9473H21.8712V16.4634C21.8712 19.932 19.0493 22.7538 15.5808 22.7538C12.1123 22.7538 9.29039 19.932 9.29039 16.4634V16.4634ZM8.03231 40.3669V30.9313H6.77424V40.3669H4.25808V31.5604C4.25808 27.9346 6.82833 24.8995 10.2421 24.1773L12.5016 28.697C12.5922 28.8775 12.7639 29.004 12.9634 29.0367C12.9973 29.0417 13.0313 29.0442 13.0646 29.0442C13.2301 29.0442 13.3905 28.9788 13.5094 28.8599L13.5232 28.8461L12.4431 35.868C12.4129 36.0662 12.4784 36.2669 12.6199 36.4084L15.1361 38.9245C15.2587 39.0472 15.4198 39.1089 15.5808 39.1089C15.7418 39.1089 15.9029 39.0472 16.0255 38.9245L18.5417 36.4084C18.6832 36.2662 18.7493 36.0662 18.7184 35.868L17.6384 28.8461L17.6522 28.8599C17.7711 28.9788 17.9315 29.0442 18.0969 29.0442C18.1303 29.0442 18.1643 29.0417 18.1976 29.036C18.397 29.0033 18.5687 28.8769 18.6593 28.6964L20.9182 24.1786C22.2895 24.468 23.5557 25.131 24.5754 26.1091C21.8617 27.4414 19.9841 30.2256 19.9841 33.4475C19.9841 36.3618 21.5214 38.9183 23.8237 40.3669H8.03231ZM28.1616 40.3669C24.3465 40.3669 21.2421 37.2626 21.2421 33.4475C21.2421 29.6324 24.3465 26.5281 28.1616 26.5281C31.9767 26.5281 35.081 29.6324 35.081 33.4475C35.081 37.2626 31.9767 40.3669 28.1616 40.3669Z" fill="#1EC9FF"/>
<path d="M33.194 17.4611L32.3807 16.6477L31.4912 17.5372L32.7493 18.7953C32.872 18.918 33.033 18.9796 33.194 18.9796C33.3551 18.9796 33.5161 18.918 33.6388 18.7953L37.413 15.0211L36.5235 14.1316L33.194 17.4611Z" fill="#1EC9FF"/>
</svg>
