<svg width="512" height="512" viewBox="0 0 512 512" fill="none" xmlns="http://www.w3.org/2000/svg">
<path d="M265.771 122.305H362.737C366.59 122.305 369.713 119.182 369.713 115.329C369.713 111.476 366.59 108.353 362.737 108.353H265.771C261.918 108.353 258.795 111.476 258.795 115.329C258.795 119.182 261.919 122.305 265.771 122.305Z" fill="#0CABDD"/>
<path d="M258.795 147.964C258.795 151.817 261.918 154.94 265.771 154.94H362.737C366.59 154.94 369.713 151.817 369.713 147.964C369.713 144.111 366.59 140.988 362.737 140.988H265.771C261.919 140.988 258.795 144.111 258.795 147.964Z" fill="#0CABDD"/>
<path d="M265.771 187.575H362.737C366.59 187.575 369.713 184.452 369.713 180.599C369.713 176.746 366.59 173.623 362.737 173.623H265.771C261.918 173.623 258.795 176.746 258.795 180.599C258.795 184.451 261.919 187.575 265.771 187.575Z" fill="#0CABDD"/>
<path d="M369.714 362.729C369.714 358.876 366.591 355.753 362.738 355.753H272.597C268.744 355.753 265.621 358.876 265.621 362.729C265.621 366.582 268.744 369.705 272.597 369.705H362.738C366.59 369.705 369.714 366.582 369.714 362.729Z" fill="#0CABDD"/>
<path d="M218.496 294.655C218.496 290.802 215.373 287.679 211.52 287.679H114.554C110.701 287.679 107.578 290.802 107.578 294.655C107.578 298.508 110.701 301.631 114.554 301.631H211.52C215.372 301.632 218.496 298.508 218.496 294.655Z" fill="#0CABDD"/>
<path d="M114.554 268.997H211.52C215.373 268.997 218.496 265.874 218.496 262.021C218.496 258.168 215.373 255.045 211.52 255.045H114.554C110.701 255.045 107.578 258.168 107.578 262.021C107.577 265.874 110.701 268.997 114.554 268.997V268.997Z" fill="#0CABDD"/>
<path d="M172.382 72.694C132.515 72.694 100.081 105.128 100.081 144.995C100.081 184.862 132.515 217.296 172.382 217.296C212.249 217.296 244.683 184.862 244.683 144.995C244.683 105.128 212.25 72.694 172.382 72.694ZM172.382 202.297C140.786 202.297 115.081 176.592 115.081 144.996C115.081 115.942 136.817 91.869 164.882 88.183V144.996C164.882 149.138 168.24 152.496 172.382 152.496H229.195C225.51 180.561 201.437 202.297 172.382 202.297ZM179.882 137.496V88.183C205.492 91.546 225.832 111.886 229.195 137.496H179.882Z" fill="#0CABDD"/>
<path d="M236.417 244.853V311.825C236.417 318.525 241.868 323.976 248.568 323.976H365.063C371.763 323.976 377.214 318.525 377.214 311.825V244.853C377.214 238.153 371.763 232.702 365.063 232.702H248.567C241.867 232.702 236.417 238.152 236.417 244.853ZM251.417 247.702H362.214V308.975H251.417V247.702Z" fill="#0CABDD"/>
<path d="M100.078 449.967C100.078 456.667 105.529 462.118 112.228 462.118H132.607C139.307 462.118 144.758 456.667 144.758 449.967V348.232C144.758 341.532 139.307 336.082 132.607 336.082H112.228C105.528 336.082 100.078 341.533 100.078 348.232V449.967ZM115.078 351.082H129.758V447.118H115.078V351.082Z" fill="#0CABDD"/>
<path d="M167.599 362.775C160.899 362.775 155.448 368.226 155.448 374.925V449.967C155.448 456.667 160.899 462.118 167.599 462.118H187.977C194.677 462.118 200.128 456.667 200.128 449.967V374.925C200.128 368.225 194.677 362.775 187.977 362.775H167.599ZM185.128 447.118H170.448V377.775H185.128V447.118Z" fill="#0CABDD"/>
<path d="M222.969 462.118H243.348C250.048 462.118 255.499 456.667 255.499 449.967V408.182C255.499 401.482 250.048 396.031 243.348 396.031H222.969C216.269 396.031 210.818 401.482 210.818 408.182V449.967C210.818 456.667 216.269 462.118 222.969 462.118ZM225.818 411.031H240.499V447.117H225.818V411.031Z" fill="#0CABDD"/>
<path d="M362.737 390.03H272.596C268.743 390.03 265.62 393.153 265.62 397.006C265.62 400.859 268.743 403.982 272.596 403.982H362.737C366.59 403.982 369.713 400.859 369.713 397.006C369.714 393.153 366.59 390.03 362.737 390.03Z" fill="#0CABDD"/>
<path d="M362.737 424.307H272.596C268.743 424.307 265.62 427.43 265.62 431.283C265.62 435.136 268.743 438.259 272.596 438.259H362.737C366.59 438.259 369.713 435.136 369.713 431.283C369.713 427.43 366.59 424.307 362.737 424.307Z" fill="#0CABDD"/>
<path d="M441.285 92.989C445.427 92.989 448.785 89.631 448.785 85.489V25.138C448.785 11.277 437.508 0 423.647 0H123.062C109.201 0 97.924 11.277 97.924 25.138V34.709H88.353C74.492 34.709 63.215 45.986 63.215 59.847V381.164C63.215 385.306 66.573 388.664 70.715 388.664C74.857 388.664 78.215 385.306 78.215 381.164V59.847C78.215 54.257 82.763 49.709 88.353 49.709H388.938C394.528 49.709 399.076 54.257 399.076 59.847V486.862C399.076 492.452 394.528 497 388.938 497H88.353C82.763 497 78.215 492.452 78.215 486.862V416.164C78.215 412.022 74.857 408.664 70.715 408.664C66.573 408.664 63.215 412.022 63.215 416.164V486.862C63.215 500.723 74.492 512 88.353 512H388.938C402.799 512 414.076 500.723 414.076 486.862V477.291H423.647C437.508 477.291 448.785 466.014 448.785 452.153V120.489C448.785 116.347 445.427 112.989 441.285 112.989C437.143 112.989 433.785 116.347 433.785 120.489V452.153C433.785 457.743 429.237 462.291 423.647 462.291H414.076V59.847C414.076 45.986 402.799 34.709 388.938 34.709C373.756 34.709 129.13 34.709 112.924 34.709V25.138C112.924 19.548 117.472 15 123.062 15H423.647C429.237 15 433.785 19.548 433.785 25.138V85.489C433.785 89.631 437.143 92.989 441.285 92.989V92.989Z" fill="#0CABDD"/>
</svg>
