<svg width="512" height="512" viewBox="0 0 512 512" fill="none" xmlns="http://www.w3.org/2000/svg">
<path d="M491.243 498.162H396.177C394.342 498.162 392.582 497.433 391.285 496.136C389.987 494.838 389.258 493.078 389.258 491.243C389.258 489.408 389.987 487.648 391.285 486.351C392.582 485.053 394.342 484.324 396.177 484.324H484.324V207.568C484.324 205.733 485.053 203.973 486.351 202.675C487.648 201.378 489.408 200.649 491.243 200.649C493.078 200.649 494.838 201.378 496.136 202.675C497.433 203.973 498.162 205.733 498.162 207.568V491.243C498.162 493.078 497.433 494.838 496.136 496.136C494.838 497.433 493.078 498.162 491.243 498.162Z" fill="#0CABDD"/>
<path d="M278.763 498.162H258.629C256.794 498.162 255.034 497.433 253.737 496.136C252.439 494.838 251.71 493.078 251.71 491.243C251.71 489.408 252.439 487.648 253.737 486.351C255.034 485.053 256.794 484.324 258.629 484.324H278.763C280.598 484.324 282.358 485.053 283.656 486.351C284.953 487.648 285.682 489.408 285.682 491.243C285.682 493.078 284.953 494.838 283.656 496.136C282.358 497.433 280.598 498.162 278.763 498.162V498.162Z" fill="#0CABDD"/>
<path d="M210.197 498.162H20.7568C18.9218 498.162 17.1619 497.433 15.8644 496.136C14.5668 494.838 13.8379 493.078 13.8379 491.243V207.568C13.8379 205.733 14.5668 203.973 15.8644 202.675C17.1619 201.378 18.9218 200.649 20.7568 200.649C22.5918 200.649 24.3517 201.378 25.6492 202.675C26.9468 203.973 27.6757 205.733 27.6757 207.568V484.324H210.197C212.032 484.324 213.792 485.053 215.089 486.351C216.387 487.648 217.116 489.408 217.116 491.243C217.116 493.078 216.387 494.838 215.089 496.136C213.792 497.433 212.032 498.162 210.197 498.162Z" fill="#0CABDD"/>
<path d="M347.745 498.162H327.196C325.361 498.162 323.601 497.433 322.303 496.136C321.006 494.838 320.277 493.078 320.277 491.243C320.277 489.408 321.006 487.648 322.303 486.351C323.601 485.053 325.361 484.324 327.196 484.324H347.745C349.58 484.324 351.34 485.053 352.637 486.351C353.935 487.648 354.664 489.408 354.664 491.243C354.664 493.078 353.935 494.838 352.637 496.136C351.34 497.433 349.58 498.162 347.745 498.162Z" fill="#0CABDD"/>
<path d="M20.7567 214.486C19.3204 214.488 17.9193 214.042 16.7477 213.211C15.5761 212.381 14.6921 211.206 14.2183 209.85C13.7445 208.494 13.7045 207.024 14.1037 205.644C14.5029 204.265 15.3216 203.043 16.4463 202.15L89.0949 144.446C90.5328 143.316 92.3595 142.801 94.1759 143.014C95.9922 143.227 97.6504 144.151 98.7879 145.583C99.9254 147.014 100.45 148.839 100.246 150.656C100.043 152.473 99.1281 154.136 97.702 155.281L25.0534 212.985C23.8315 213.956 22.3173 214.485 20.7567 214.486V214.486Z" fill="#0CABDD"/>
<path d="M491.243 214.486C489.683 214.485 488.168 213.956 486.947 212.985L414.298 155.281C412.872 154.136 411.957 152.473 411.754 150.656C411.55 148.839 412.075 147.014 413.212 145.583C414.35 144.151 416.008 143.227 417.824 143.014C419.64 142.801 421.467 143.316 422.905 144.446L495.554 202.15C496.678 203.043 497.497 204.265 497.896 205.644C498.295 207.024 498.255 208.494 497.782 209.85C497.308 211.206 496.424 212.381 495.252 213.211C494.081 214.042 492.68 214.488 491.243 214.486Z" fill="#0CABDD"/>
<path d="M337.36 92.2984C335.798 92.3006 334.283 91.7711 333.063 90.797L256 29.5922L178.937 90.797C178.226 91.3677 177.41 91.7923 176.534 92.0465C175.659 92.3006 174.742 92.3792 173.836 92.2778C172.93 92.1763 172.053 91.8969 171.255 91.4554C170.457 91.014 169.755 90.4193 169.188 89.7054C168.621 88.9916 168.2 88.1728 167.951 87.296C167.701 86.4192 167.627 85.5017 167.734 84.5963C167.84 83.6908 168.124 82.8153 168.569 82.02C169.015 81.2247 169.613 80.5253 170.33 79.9619L251.697 15.3392C252.92 14.3671 254.437 13.838 256 13.838C257.563 13.838 259.08 14.3671 260.304 15.3392L341.67 79.9619C342.795 80.8554 343.613 82.0766 344.013 83.4563C344.412 84.836 344.372 86.3058 343.898 87.6617C343.424 89.0176 342.54 90.1925 341.369 91.0233C340.197 91.8542 338.796 92.2998 337.36 92.2984V92.2984Z" fill="#0CABDD"/>
<path d="M256 401.297C254.437 401.297 252.92 400.768 251.696 399.796L16.4532 212.985C15.0272 211.84 14.1124 210.177 13.909 208.36C13.7055 206.542 14.2298 204.718 15.3673 203.286C16.5048 201.854 18.163 200.931 19.9794 200.718C21.7957 200.505 23.6225 201.02 25.0603 202.15L256 385.543L486.94 202.15C488.378 201.02 490.204 200.505 492.021 200.718C493.837 200.931 495.495 201.854 496.633 203.286C497.77 204.718 498.295 206.542 498.091 208.36C497.888 210.177 496.973 211.84 495.547 212.985L260.304 399.796C259.08 400.768 257.563 401.297 256 401.297Z" fill="#0CABDD"/>
<path d="M347.745 498.162H327.196C325.361 498.162 323.601 497.433 322.303 496.136C321.006 494.838 320.277 493.078 320.277 491.243C320.277 489.408 321.006 487.648 322.303 486.351C323.601 485.053 325.361 484.324 327.196 484.324H347.745C349.58 484.324 351.34 485.053 352.637 486.351C353.935 487.648 354.664 489.408 354.664 491.243C354.664 493.078 353.935 494.838 352.637 496.136C351.34 497.433 349.58 498.162 347.745 498.162Z" fill="#0CABDD"/>
<path d="M210.197 498.162H20.7567C19.3608 498.163 17.9975 497.741 16.8458 496.952C15.694 496.164 14.8077 495.045 14.3033 493.744C13.7989 492.442 13.6999 491.019 14.0193 489.66C14.3388 488.301 15.0618 487.071 16.0933 486.13L182.355 334.537C183.017 333.874 183.806 333.353 184.676 333.004C185.545 332.656 186.476 332.488 187.412 332.51C188.348 332.532 189.27 332.744 190.122 333.132C190.974 333.521 191.739 334.079 192.369 334.772C192.999 335.465 193.482 336.278 193.788 337.163C194.094 338.048 194.218 338.986 194.151 339.92C194.084 340.855 193.828 341.765 193.399 342.598C192.97 343.43 192.376 344.167 191.654 344.763L38.6144 484.324H210.204C212.039 484.324 213.798 485.053 215.096 486.351C216.394 487.648 217.123 489.408 217.123 491.243C217.123 493.078 216.394 494.838 215.096 496.136C213.798 497.433 212.039 498.162 210.204 498.162H210.197Z" fill="#0CABDD"/>
<path d="M278.763 498.162H258.629C256.794 498.162 255.034 497.433 253.737 496.136C252.439 494.838 251.71 493.078 251.71 491.243C251.71 489.408 252.439 487.648 253.737 486.351C255.034 485.053 256.794 484.324 258.629 484.324H278.763C280.598 484.324 282.358 485.053 283.656 486.351C284.953 487.648 285.682 489.408 285.682 491.243C285.682 493.078 284.953 494.838 283.656 496.136C282.358 497.433 280.598 498.162 278.763 498.162V498.162Z" fill="#0CABDD"/>
<path d="M491.243 498.162H396.177C394.342 498.162 392.582 497.433 391.285 496.136C389.987 494.838 389.258 493.078 389.258 491.243C389.258 489.408 389.987 487.648 391.285 486.351C392.582 485.053 394.342 484.324 396.177 484.324H473.385L320.346 344.763C319.674 344.15 319.13 343.412 318.744 342.589C318.358 341.766 318.138 340.876 318.096 339.968C318.054 339.06 318.192 338.153 318.501 337.298C318.81 336.443 319.284 335.658 319.896 334.986C320.508 334.315 321.247 333.771 322.07 333.385C322.893 332.999 323.783 332.779 324.691 332.737C325.599 332.695 326.506 332.832 327.361 333.141C328.216 333.45 329.001 333.924 329.673 334.537L495.934 486.13C496.967 487.072 497.691 488.305 498.01 489.666C498.328 491.028 498.227 492.454 497.719 493.757C497.211 495.059 496.321 496.178 495.165 496.964C494.009 497.75 492.641 498.168 491.243 498.162V498.162Z" fill="#0CABDD"/>
<path d="M418.595 272.19C416.76 272.19 415 271.461 413.702 270.164C412.405 268.866 411.676 267.106 411.676 265.271V92.2984H100.324V265.271C100.324 267.106 99.5955 268.866 98.2979 270.164C97.0004 271.461 95.2405 272.19 93.4055 272.19C91.5705 272.19 89.8106 271.461 88.5131 270.164C87.2155 268.866 86.4866 267.106 86.4866 265.271V85.3795C86.4866 83.5444 87.2155 81.7846 88.5131 80.487C89.8106 79.1895 91.5705 78.4605 93.4055 78.4605H418.595C420.43 78.4605 422.19 79.1895 423.487 80.487C424.785 81.7846 425.514 83.5444 425.514 85.3795V265.271C425.514 267.106 424.785 268.866 423.487 270.164C422.19 271.461 420.43 272.19 418.595 272.19Z" fill="#0CABDD"/>
<path d="M363.243 148.757H148.757C146.922 148.757 145.162 148.028 143.864 146.73C142.567 145.433 141.838 143.673 141.838 141.838C141.838 140.003 142.567 138.243 143.864 136.945C145.162 135.648 146.922 134.919 148.757 134.919H363.243C365.078 134.919 366.838 135.648 368.136 136.945C369.433 138.243 370.162 140.003 370.162 141.838C370.162 143.673 369.433 145.433 368.136 146.73C366.838 148.028 365.078 148.757 363.243 148.757Z" fill="#0CABDD"/>
<path d="M363.243 201.825H148.757C146.922 201.825 145.162 201.096 143.864 199.798C142.567 198.501 141.838 196.741 141.838 194.906C141.838 193.071 142.567 191.311 143.864 190.014C145.162 188.716 146.922 187.987 148.757 187.987H363.243C365.078 187.987 366.838 188.716 368.136 190.014C369.433 191.311 370.162 193.071 370.162 194.906C370.162 196.741 369.433 198.501 368.136 199.798C366.838 201.096 365.078 201.825 363.243 201.825Z" fill="#0CABDD"/>
<path d="M363.243 254.893H148.757C146.922 254.893 145.162 254.164 143.864 252.866C142.567 251.569 141.838 249.809 141.838 247.974C141.838 246.139 142.567 244.379 143.864 243.082C145.162 241.784 146.922 241.055 148.757 241.055H363.243C365.078 241.055 366.838 241.784 368.136 243.082C369.433 244.379 370.162 246.139 370.162 247.974C370.162 249.809 369.433 251.569 368.136 252.866C366.838 254.164 365.078 254.893 363.243 254.893Z" fill="#0CABDD"/>
</svg>
