<svg width="147" height="148" viewBox="0 0 147 148" fill="none" xmlns="http://www.w3.org/2000/svg">
<path fill-rule="evenodd" clip-rule="evenodd" d="M38.4658 1.55057C38.4658 4.04234 41.6811 7.6918 46.2192 10.3509C51.2366 13.2904 51.5283 12.7997 42.7619 16.1575C38.658 17.7289 34.8932 19.418 34.3957 19.9087C33.3081 20.985 54.2349 20.5079 57.007 19.3931C58.0019 18.9929 57.5972 19.5152 56.1094 20.5531C51.829 23.5333 44.8286 24.5033 30.1765 24.146C22.7962 23.9674 16.7589 24.1189 16.7589 24.4829C16.7589 25.6316 20.6164 27.6802 26.8119 29.8169L32.7949 31.8814L28.363 33.9345C20.6119 37.5251 7.72118 52.322 12.3429 52.322C13.8669 52.322 13.2971 53.3146 9.14797 57.9024C6.36904 60.9731 4.09662 63.8198 4.09662 64.2313C4.09662 64.6429 14.4684 59.7973 27.1466 53.4661C45.8755 44.1095 49.8347 41.8168 48.27 41.2379C47.2096 40.8468 46.5199 40.3493 46.7347 40.1345C47.1078 39.7614 67.8718 34.086 73.0611 32.9396C74.6032 32.5982 75.5506 31.7954 75.5506 30.8232C75.5732 20.9488 87.3966 21.4779 93.3886 31.6213C96.6921 37.2131 99.6429 34.9045 100.572 26.0002L101.117 20.786L103.247 22.1811C105.816 23.8634 106.768 22.4502 106.105 17.9415C105.619 14.6312 106.243 14.5521 109.081 17.5729C111.023 19.6396 111.274 20.7317 111.274 27.1036C111.274 33.783 111.403 34.2804 113.083 34.0408C115.582 33.6812 116.142 23.0155 113.963 17.3084C109.549 5.75174 89.1603 0.00395211 65.1471 3.54714C54.2078 5.16159 51.5894 4.98522 45.3622 2.22212C39.0311 -0.588461 38.4658 -0.642721 38.4658 1.55057ZM79.347 26.2737C77.6534 27.9673 78.0694 29.7107 80.1678 29.7107C81.728 29.7107 81.9767 30.1041 81.5312 31.8769C81.1627 33.3443 81.425 34.2126 82.3385 34.563C83.0802 34.8479 83.6884 35.9084 83.6884 36.9169C83.6884 39.2391 84.5951 39.2278 88.6108 36.8559C92.708 34.441 92.656 33.0391 88.3169 28.7C84.7194 25.1025 81.4114 24.2093 79.347 26.2737ZM62.886 38.3686C51.0965 41.4437 51.2231 41.3894 53.2671 42.5381C54.7052 43.343 53.2038 44.3967 43.1395 49.6312C8.27744 67.7632 -3.6161 83.9733 0.924252 107.166L1.60708 110.659L3.62404 104.78C7.07453 94.7204 14.2694 81.9744 12.049 89.8567C6.05475 111.138 19.1105 131.371 44.4713 140.097C47.3 141.071 49.8551 141.607 50.1468 141.288C50.4385 140.972 50.1943 140.538 49.6041 140.327C43.3815 138.096 36.4398 129.18 34.8095 121.327C33.8372 116.647 34.2239 113.445 35.3205 117.088C38.3482 127.131 50.5131 140.094 58.5243 141.813C63.3902 142.855 84.7533 143.095 90.3632 142.168L93.8725 141.587L93.2914 136.072C92.9703 133.04 92.5068 129.336 92.2626 127.844C92.0183 126.351 92.9929 128.386 94.4265 132.366C99.2381 145.722 99.1975 131.446 94.3813 116.538C90.2343 103.702 84.4798 96.3575 73.8163 90.2818C70.7841 88.5566 66.9877 86.3768 65.3755 85.4407L62.4451 83.7359L67.0306 79.5618L71.614 75.3855L70.307 70.8881C69.2488 67.2522 69.2081 65.8119 70.0944 63.3585C71.3901 59.7814 70.9627 59.0443 68.3896 60.4213C65.077 62.1941 66.3365 60.9437 72.8553 55.9873C76.3488 53.3304 79.0237 50.9721 78.7953 50.746C77.9948 49.9455 68.9594 55.4853 63.0035 60.4281C53.2988 68.4845 53.2061 68.5456 55.6187 65.2489C57.353 62.8815 68.792 52.885 76.1724 47.2887C78.7365 45.3441 75.7948 45.6969 72.9751 47.6708C71.6546 48.5956 68.7423 50.4588 66.5038 51.8087L62.4337 54.2643L67.4082 49.4322C70.1442 46.7754 73.2623 43.9965 74.3386 43.2616C75.8807 42.2034 76.1927 41.3012 75.8174 38.9813C75.234 35.368 74.5218 35.3341 62.886 38.3686ZM106.216 41.2424L103.231 44.6341L108.611 44.91C112.893 45.1316 114.471 45.6494 116.366 47.4628C118.541 49.5453 119.048 49.6561 122.347 48.7675C124.33 48.2339 127.33 48.0349 129.015 48.3243L132.077 48.8534L129.815 46.9902C128.572 45.9659 127.315 45.118 127.021 45.1067C126.729 45.0954 126.021 44.0621 125.451 42.8117C124.425 40.5551 120.332 37.9864 119.344 38.9768C119.062 39.2594 119.48 40.7495 120.276 42.2893C121.897 45.4233 121.325 45.8687 118.713 43.5036C117.61 42.5064 115.507 41.9208 113.027 41.9208C109.397 41.9208 109.133 41.7625 109.603 39.8858C110.311 37.0639 109.667 37.3216 106.216 41.2424ZM78.8314 41.6947C78.5307 42.8139 78.2798 44.7223 78.273 45.9343L78.2617 48.1389L80.8913 45.62C83.3582 43.2571 83.4284 42.9948 82.0468 41.3804C80.1362 39.1486 79.4985 39.2097 78.8314 41.6947ZM93.6373 53.4774C93.6373 57.457 93.4338 57.8165 90.2456 59.4558C84.4775 62.4247 79.4759 68.8372 76.9683 76.4867C75.5754 80.7376 75.1096 81.2644 72.2742 81.7958C67.4354 82.7048 68.7333 84.8461 76.6088 88.9545C89.0088 95.4236 96.5022 108.176 99.6045 128.09C100.565 134.256 101.425 133.381 103.584 124.031C105.465 115.898 105.705 115.398 106.967 117.036C109.065 119.76 114.768 132.452 117.614 140.732C120.574 149.343 121.286 149.822 122.297 143.898C124.701 129.833 122.465 114.661 116.029 101.352C111.464 91.9098 112.246 91.0642 118.901 98.2342C124.495 104.26 125.576 104.642 131.638 102.752C138.962 100.466 133.408 93.8816 125.257 95.184C120.929 95.8759 117.153 92.0975 117.153 87.0733C117.153 84.9953 116.728 83.9778 115.862 83.9778C115.152 83.9778 113.391 82.5442 111.946 80.7919L109.321 77.6082L108.283 79.8874C107.044 82.6098 104.466 82.8314 98.856 80.7037C89.192 77.0384 88.093 70.2527 95.8985 62.4473C101.832 56.5141 101.741 57.1563 97.2551 52.7742L93.6373 49.2423V53.4774ZM124.31 57.111C112.846 63.0917 116.694 74.6099 129.901 73.8525L134.79 73.5721L130.935 72.2968C125.357 70.4517 124.133 68.6202 129.126 69.5857C134.713 70.6665 135.407 70.5829 135.077 68.8689C134.914 68.0188 133.802 67.0939 132.606 66.8113C128.97 65.9521 126.932 62.3817 127.986 58.7119C129.142 54.6962 129.033 54.6487 124.31 57.111ZM136.167 59.3315C136.178 60.202 136.983 61.9318 137.955 63.1754C143.843 70.7027 132.038 80.0253 122.865 75.0916C118.073 72.5139 113.535 74.2843 113.535 78.732C113.535 81.5765 114.953 81.7822 125.476 80.4663C130.523 79.8354 130.641 79.8716 130.903 82.1192C131.532 87.4848 137.282 84.4255 137.582 78.5646C137.741 75.4646 138.467 74.0153 141.379 70.9876C145.442 66.7661 147 64.1296 147 61.4795C147 59.2229 145.37 58.1127 144.027 59.4558C142.611 60.8713 140.189 60.7062 138.86 59.1054C137.352 57.2897 136.142 57.3892 136.167 59.3315ZM88.491 118.546C90.0421 121.409 90.0399 121.433 88.4752 119.26C87.5843 118.021 85.4475 115.376 83.7268 113.382L80.5997 109.755L83.7404 112.667C85.4702 114.268 87.6069 116.913 88.491 118.546Z" fill="#3C3C3C"/>
</svg>
