<?xml version="1.0"?>
<svg xmlns="http://www.w3.org/2000/svg" xmlns:xlink="http://www.w3.org/1999/xlink" xmlns:svgjs="http://svgjs.com/svgjs" version="1.1" width="512" height="512" x="0" y="0" viewBox="0 0 512 512" style="enable-background:new 0 0 512 512" xml:space="preserve" class=""><g><g xmlns="http://www.w3.org/2000/svg"><path d="m255.985 175.121c-5.522 0-10 4.477-10 10v45.096c0 5.523 4.478 10 10 10s10-4.477 10-10v-45.096c0-5.523-4.477-10-10-10z" fill="#0cabdd" data-original="#000000" style="" class=""/><path d="m245.985 139.515c0 5.523 4.478 10 10 10s10-4.477 10-10v-.029c0-5.523-4.478-9.986-10-9.986s-10 4.492-10 10.015z" fill="#0cabdd" data-original="#000000" style="" class=""/><path d="m434.729 87.176c-3.154-4.534-9.386-5.652-13.919-2.499-4.534 3.154-5.653 9.386-2.499 13.92 31.635 45.48 31.635 119.481 0 164.961-3.154 4.534-2.035 10.766 2.499 13.92 1.74 1.21 3.73 1.792 5.701 1.792 3.163 0 6.275-1.497 8.218-4.291 17.538-25.214 27.197-58.562 27.197-93.902 0-35.339-9.659-68.688-27.197-93.901z" fill="#0cabdd" data-original="#000000" style="" class=""/><path d="m470.134 36.289c-3.154-4.534-9.388-5.652-13.92-2.497-4.534 3.154-5.652 9.386-2.498 13.92 51.157 73.524 51.157 193.18-.001 266.732-3.153 4.534-2.034 10.766 2.5 13.919 1.74 1.21 3.73 1.792 5.701 1.792 3.163 0 6.275-1.498 8.219-4.291 26.997-38.816 41.865-90.24 41.865-144.797 0-54.559-14.868-105.975-41.866-144.778z" fill="#0cabdd" data-original="#000000" style="" class=""/><path d="m149.352 184.838c0 58.861 47.836 106.748 106.634 106.748 58.799 0 106.635-47.887 106.635-106.748 0-58.845-47.836-106.719-106.635-106.719-58.798-.001-106.634 47.873-106.634 106.719zm193.268 0c0 47.833-38.864 86.748-86.635 86.748s-86.634-38.915-86.634-86.748c0-47.817 38.863-86.719 86.634-86.719s86.635 38.901 86.635 86.719z" fill="#0cabdd" data-original="#000000" style="" class=""/><path d="m370.847 97.043c-4.663 2.958-6.045 9.138-3.087 13.801 24.357 38.391 28.1 89.419 10.268 140-12.731 36.097-36.84 67.481-60.153 97.832-4.561 5.937-9.273 12.072-13.84 18.162l-31.19 36.131c-3.73 4.332-9.685 9.496-16.858 9.496s-13.127-5.164-16.862-9.501l-31.157-36.125c-4.525-6.028-9.193-12.104-13.711-17.981-23.365-30.404-47.525-61.843-60.283-98.014-18.542-52.541-13.4-106.821 13.755-145.202 23.865-33.73 62.312-52.306 108.259-52.306 16.467 0 32.095 2.374 46.45 7.056 5.253 1.713 10.896-1.157 12.607-6.407 1.713-5.25-1.155-10.895-6.406-12.608-16.361-5.336-34.075-8.042-52.651-8.042-52.62 0-96.866 21.576-124.585 60.754-15.106 21.35-24.63 47.402-27.543 75.34-2.958 28.372.934 58.826 11.254 88.068 13.817 39.176 38.966 71.9 63.285 103.546 4.551 5.921 20.34 25.716 20.34 25.716-36.152 8.407-57.208 24.16-57.208 43.538 0 15.057 13.156 28.348 37.044 37.426 20.834 7.917 48.326 12.277 77.413 12.277 29.1 0 56.601-4.36 77.438-12.277 23.892-9.077 37.049-22.369 37.049-37.426 0-19.375-21.059-35.128-57.214-43.538 0 0 15.883-19.92 20.477-25.9 24.269-31.593 49.362-64.261 63.154-103.365 19.886-56.404 15.424-113.761-12.24-157.365-2.964-4.663-9.143-6.046-13.805-3.086zm-20.375 333.254c0 4.407-6.325 11.957-24.151 18.73-18.625 7.076-43.604 10.973-70.335 10.973-26.719 0-51.688-3.897-70.309-10.973-17.824-6.773-24.148-14.323-24.148-18.73 0-7.287 16.254-19.845 52.185-26.173l10.26 11.896c9.266 10.758 20.335 16.444 32.012 16.444 11.678 0 22.747-5.686 32.005-16.435l10.28-11.908c35.941 6.332 52.201 18.891 52.201 26.176z" fill="#0cabdd" data-original="#000000" style="" class=""/><path d="m339.899 79.893.057.028c1.432.716 2.951 1.055 4.447 1.055 3.663 0 7.187-2.034 8.94-5.542 2.47-4.94.439-10.961-4.501-13.431s-10.946-.468-13.416 4.472c-2.469 4.941-.467 10.948 4.473 13.418z" fill="#0cabdd" data-original="#000000" style="" class=""/><path d="m91.194 84.679c-4.532-3.155-10.765-2.039-13.921 2.494-17.554 25.214-27.221 58.563-27.221 93.904s9.667 68.69 27.221 93.905c1.943 2.792 5.054 4.288 8.216 4.288 1.972 0 3.964-.582 5.705-1.794 4.532-3.155 5.648-9.388 2.493-13.92-31.66-45.479-31.66-119.477 0-164.956 3.156-4.533 2.04-10.766-2.493-13.921z" fill="#0cabdd" data-original="#000000" style="" class=""/><path d="m58.284 47.712c3.154-4.534 2.036-10.766-2.498-13.92-4.532-3.155-10.765-2.037-13.92 2.497-26.998 38.803-41.866 90.219-41.866 144.778 0 54.558 14.868 105.981 41.865 144.797 1.943 2.794 5.056 4.291 8.219 4.291 1.971 0 3.961-.581 5.701-1.792 4.534-3.153 5.653-9.385 2.5-13.919-51.158-73.552-51.158-193.208-.001-266.732z" fill="#0cabdd" data-original="#000000" style="" class=""/></g></g></svg>
