<svg width="47" height="47" viewBox="0 0 47 47" fill="none" xmlns="http://www.w3.org/2000/svg">
<g clip-path="url(#clip0)">
<path d="M45.707 0.247987C45.49 0.057987 45.203 -0.029013 44.915 0.00898699L24.819 2.69899C24.322 2.76499 23.952 3.18899 23.952 3.68999V21.282C23.952 21.834 24.4 22.282 24.952 22.282H45.048C45.6 22.282 46.048 21.834 46.048 21.282V0.999987C46.048 0.710987 45.924 0.436987 45.707 0.247987ZM44.048 20.282H25.952V4.56499L44.048 2.14299V20.282Z" fill="#0CABDD"/>
<path d="M20.952 24.336C20.952 24.336 20.951 24.336 20.95 24.336L2.04597 24.375C1.49397 24.376 1.04797 24.824 1.04797 25.375V40.376C1.04797 40.879 1.42197 41.304 1.92097 41.368L20.825 43.774C20.868 43.779 20.91 43.782 20.952 43.782C21.194 43.782 21.43 43.694 21.613 43.532C21.828 43.342 21.952 43.069 21.952 42.782V25.336C21.952 25.07 21.847 24.816 21.658 24.628C21.471 24.441 21.216 24.336 20.952 24.336ZM19.952 41.647L3.04797 39.495V26.373L19.952 26.338V41.647V41.647Z" fill="#0CABDD"/>
<path d="M20.824 3.187L1.82403 5.632C1.32503 5.697 0.952026 6.122 0.952026 6.624V21.282C0.952026 21.834 1.40003 22.282 1.95203 22.282H20.952C21.504 22.282 21.952 21.834 21.952 21.282V4.179C21.952 3.891 21.828 3.618 21.613 3.428C21.398 3.238 21.108 3.15 20.824 3.187ZM19.952 20.282H2.95203V7.504L19.952 5.316V20.282Z" fill="#0CABDD"/>
<path d="M45.05 24.375L24.954 24.347H24.953C24.688 24.347 24.434 24.452 24.247 24.639C24.059 24.827 23.954 25.081 23.954 25.347V43.282C23.954 43.782 24.324 44.206 24.82 44.273L44.916 46.991C44.959 46.997 45.004 47 45.048 47C45.289 47 45.523 46.913 45.706 46.753C45.923 46.563 46.048 46.289 46.048 46V25.375C46.048 24.823 45.601 24.376 45.05 24.375ZM44.048 44.855L25.952 42.408V26.348L44.048 26.373V44.855Z" fill="#0CABDD"/>
</g>
<defs>
<clipPath id="clip0">
<rect width="47" height="47" fill="white"/>
</clipPath>
</defs>
</svg>
