<svg width="512" height="512" viewBox="0 0 512 512" fill="none" xmlns="http://www.w3.org/2000/svg">
<path d="M479.934 48.133C488.481 48.133 495.434 41.18 495.434 32.633V15.5C495.434 6.953 488.481 0 479.934 0H32.066C23.519 0 16.566 6.953 16.566 15.5V32.633C16.566 41.18 23.519 48.133 32.066 48.133H33.132V91.9C33.132 96.042 36.489 99.4 40.632 99.4C44.775 99.4 48.132 96.042 48.132 91.9V48.133H463.866V347.9H48.133V121.9C48.133 117.758 44.776 114.4 40.633 114.4C36.49 114.4 33.133 117.758 33.133 121.9V347.9H32.067C23.52 347.9 16.567 354.853 16.567 363.4V380.533C16.567 389.08 23.52 396.033 32.067 396.033H80.44L53.011 491.874C51.636 496.68 52.573 501.727 55.583 505.718C58.593 509.71 63.186 512 68.186 512H100.654C107.662 512 113.902 507.295 115.829 500.559L122.037 478.867H223.65V496.217C223.65 504.92 230.73 512 239.433 512H272.566C281.269 512 288.349 504.92 288.349 496.217V478.867H389.962L396.17 500.558C398.097 507.295 404.337 512 411.345 512H443.813C448.813 512 453.406 509.71 456.415 505.718C459.425 501.726 460.362 496.68 458.987 491.874L431.558 396.033H479.932C488.479 396.033 495.432 389.08 495.432 380.533V363.4C495.432 354.853 488.479 347.9 479.932 347.9H478.866V48.133H479.934ZM100.654 497H68.187C68.09 497 67.796 497 67.561 496.688C67.327 496.377 67.407 496.094 67.434 496.001L95.988 396.226H130.087L101.408 496.433C101.312 496.767 101.002 497 100.654 497V497ZM273.35 496.217C273.35 496.649 272.998 497 272.567 497H239.434C239.002 497 238.651 496.648 238.651 496.217V478.867H273.35V496.217ZM126.33 463.867L131.52 445.734H380.48L385.669 463.867H126.33ZM273.35 396.226V430.733H238.65V396.226H273.35ZM444.44 496.688C444.204 497 443.91 497 443.814 497H411.346C410.998 497 410.689 496.767 410.593 496.432L381.914 396.226H416.013L444.567 496.001C444.594 496.094 444.674 496.376 444.44 496.688V496.688ZM376.188 430.733H288.35V396.033H366.257L376.188 430.733ZM480.434 363.4V380.533C480.434 380.809 480.209 381.033 479.934 381.033H190.301C186.158 381.033 182.801 384.391 182.801 388.533C182.801 392.675 186.158 396.033 190.301 396.033H223.651V430.733H135.813L145.744 396.033H160.3C164.443 396.033 167.8 392.675 167.8 388.533C167.8 384.391 164.443 381.033 160.3 381.033H32.066C31.791 381.033 31.566 380.809 31.566 380.533V363.4C31.566 363.124 31.791 362.9 32.066 362.9H479.933C480.209 362.9 480.434 363.124 480.434 363.4V363.4ZM32.066 33.133C31.791 33.133 31.566 32.909 31.566 32.633V15.5C31.566 15.224 31.791 15 32.066 15H479.933C480.208 15 480.433 15.224 480.433 15.5V32.633C480.433 32.909 480.208 33.133 479.933 33.133H32.066Z" fill="#0CABDD"/>
<path d="M115.967 305.7C115.967 318.971 126.763 329.766 140.033 329.766C153.303 329.766 164.1 318.971 164.1 305.7C164.1 292.43 153.304 281.633 140.034 281.633C126.764 281.633 115.967 292.43 115.967 305.7V305.7ZM140.033 296.633C145.032 296.633 149.099 300.7 149.099 305.7C149.099 310.699 145.032 314.766 140.033 314.766C135.034 314.766 130.967 310.699 130.967 305.7C130.967 300.701 135.034 296.633 140.033 296.633Z" fill="#0CABDD"/>
<path d="M371.967 114.986C385.238 114.986 396.033 104.19 396.033 90.919C396.033 77.649 385.237 66.853 371.967 66.853C358.697 66.853 347.9 77.648 347.9 90.919C347.9 104.19 358.696 114.986 371.967 114.986V114.986ZM371.967 81.853C376.966 81.853 381.033 85.92 381.033 90.919C381.033 95.919 376.966 99.986 371.967 99.986C366.968 99.986 362.901 95.919 362.901 90.919C362.9 85.92 366.968 81.853 371.967 81.853Z" fill="#0CABDD"/>
<path d="M132.533 256C132.533 260.142 135.89 263.5 140.033 263.5C144.176 263.5 147.533 260.142 147.533 256V239.433C147.533 235.291 144.176 231.933 140.033 231.933C135.89 231.933 132.533 235.291 132.533 239.433V256Z" fill="#0CABDD"/>
<path d="M140.033 213.8C144.176 213.8 147.533 210.442 147.533 206.3V189.734C147.533 185.592 144.176 182.234 140.033 182.234C135.89 182.234 132.533 185.592 132.533 189.734V206.3C132.533 210.442 135.891 213.8 140.033 213.8Z" fill="#0CABDD"/>
<path d="M118.163 161.903C119.628 163.367 121.548 164.1 123.467 164.1C125.386 164.1 127.306 163.368 128.771 161.903L140.034 150.64L151.297 161.903C152.762 163.368 154.681 164.1 156.601 164.1C158.52 164.1 160.44 163.368 161.905 161.903C164.834 158.974 164.834 154.225 161.905 151.297L150.642 140.034L161.905 128.771C164.834 125.842 164.834 121.093 161.905 118.165C158.975 115.236 154.227 115.236 151.298 118.165L140.035 129.428L128.772 118.165C125.843 115.236 121.095 115.235 118.165 118.165C115.236 121.094 115.236 125.843 118.165 128.771L129.428 140.034L118.165 151.297C115.234 154.226 115.234 158.975 118.163 161.903Z" fill="#0CABDD"/>
<path d="M261.304 225.847C258.374 222.918 253.626 222.918 250.697 225.847L239.434 237.11L228.171 225.847C225.242 222.918 220.494 222.917 217.564 225.847C214.635 228.776 214.635 233.525 217.564 236.453L228.827 247.717L217.564 258.98C214.635 261.909 214.635 266.658 217.564 269.586C219.029 271.05 220.949 271.783 222.868 271.783C224.787 271.783 226.707 271.051 228.172 269.586L239.435 258.323L250.698 269.586C252.163 271.051 254.082 271.783 256.002 271.783C257.921 271.783 259.841 271.051 261.306 269.586C264.235 266.657 264.235 261.908 261.306 258.98L250.043 247.717L261.306 236.453C264.232 233.524 264.232 228.775 261.304 225.847V225.847Z" fill="#0CABDD"/>
<path d="M393.837 225.847C390.907 222.918 386.159 222.918 383.23 225.847L371.967 237.11L360.704 225.847C357.775 222.918 353.027 222.917 350.097 225.847C347.168 228.776 347.168 233.525 350.097 236.453L361.36 247.717L350.097 258.98C347.168 261.909 347.168 266.658 350.097 269.586C351.562 271.05 353.482 271.783 355.401 271.783C357.32 271.783 359.24 271.051 360.705 269.586L371.968 258.323L383.231 269.586C384.696 271.051 386.615 271.783 388.535 271.783C390.454 271.783 392.374 271.051 393.839 269.586C396.768 266.657 396.768 261.908 393.839 258.98L382.576 247.717L393.839 236.453C396.766 233.524 396.766 228.775 393.837 225.847V225.847Z" fill="#0CABDD"/>
<path d="M173.167 182.233C169.024 182.233 165.667 185.591 165.667 189.733C165.667 193.875 169.024 197.233 173.167 197.233H371.967C376.11 197.233 379.467 193.875 379.467 189.733V157.744L383.23 161.507C384.695 162.971 386.615 163.704 388.534 163.704C390.453 163.704 392.373 162.972 393.838 161.507C396.767 158.578 396.767 153.829 393.838 150.901L377.272 134.335C374.342 131.406 369.594 131.406 366.665 134.335L350.097 150.9C347.168 153.829 347.168 158.578 350.097 161.506C353.027 164.435 357.775 164.435 360.704 161.506L364.467 157.743V182.232H173.167V182.233Z" fill="#0CABDD"/>
</svg>
