<svg width="49" height="49" viewBox="0 0 49 49" fill="none" xmlns="http://www.w3.org/2000/svg">
<path d="M40.0168 49C41.8209 49 43.2835 47.5374 43.2835 45.7333V8.98331C43.2835 7.17918 41.8209 5.71665 40.0168 5.71665H31.8501C31.8501 4.36355 30.7532 3.26665 29.4001 3.26665L28.4961 3.23725C28.0933 1.34681 26.4202 -0.00225926 24.4874 0.00484974C22.5545 0.0119587 20.8914 1.3733 20.5025 3.26665H19.6001C18.247 3.26665 17.1501 4.36355 17.1501 5.71665H8.98346C7.17933 5.71665 5.7168 7.17918 5.7168 8.98331V45.7333C5.7168 47.5374 7.17933 49 8.98346 49H40.0168ZM18.7835 5.71665C18.7835 5.26562 19.1491 4.89998 19.6001 4.89998H20.5025C21.2846 4.89789 21.9554 4.34179 22.1024 3.57372C22.3405 2.43935 23.341 1.62708 24.5001 1.62708C25.6592 1.62708 26.6597 2.43935 26.8979 3.57372C27.0452 4.3433 27.7182 4.89985 28.5018 4.89998H29.4001C29.8512 4.89998 30.2168 5.26562 30.2168 5.71665V7.34998C30.2168 7.80101 29.8512 8.16665 29.4001 8.16665H19.6001C19.1491 8.16665 18.7835 7.80101 18.7835 7.34998V5.71665ZM19.6001 9.79998H29.4001C30.7532 9.79998 31.8501 8.70308 31.8501 7.34998H38.3835V38.3833H34.3001C33.3981 38.3833 32.6668 39.1146 32.6668 40.0166V44.1H10.6168V7.34998H17.1501C17.1501 8.70308 18.247 9.79998 19.6001 9.79998ZM37.2287 40.0166L34.3001 42.9452V40.0166H37.2287ZM7.35013 45.7333V8.98331C7.35013 8.08125 8.0814 7.34998 8.98346 7.34998V44.1C8.98346 45.002 9.71473 45.7333 10.6168 45.7333H33.4835C33.7 45.7333 33.9077 45.6472 34.0608 45.494L39.7775 39.7774C39.9307 39.6242 40.0168 39.4166 40.0168 39.2V7.34998C40.9189 7.34998 41.6501 8.08125 41.6501 8.98331V45.7333C41.6501 46.6354 40.9189 47.3666 40.0168 47.3666H8.98346C8.0814 47.3666 7.35013 46.6354 7.35013 45.7333Z" fill="#0CABDD"/>
<path d="M24.0635 39.3266C23.8446 39.4654 23.6201 39.592 23.3914 39.7121L22.1011 36.701L24.4694 28.8177C24.5988 28.3856 24.3535 27.9304 23.9214 27.801C23.4893 27.6715 23.0341 27.9169 22.9047 28.349L21.8512 31.85H13.8838C13.4327 31.85 13.0671 32.2157 13.0671 32.6667C13.0671 33.1177 13.4327 33.4834 13.8838 33.4834V35.9562C13.4828 36.0066 13.1811 36.346 13.1782 36.75C13.1782 37.201 13.5438 37.5667 13.9948 37.5667H15.1553L14.3223 39.7839C14.043 39.6435 13.7686 39.494 13.5056 39.3266C13.2591 39.1705 12.948 39.1578 12.6896 39.2933C12.4311 39.4287 12.2645 39.6918 12.2526 39.9833C12.2407 40.2749 12.3853 40.5507 12.6318 40.7068C14.4739 41.8653 16.6077 42.4757 18.7838 42.4667C20.3313 42.4684 21.8636 42.1601 23.2901 41.5602H23.295C23.864 41.3227 24.4122 41.0383 24.9341 40.71C25.3152 40.4687 25.4285 39.9642 25.1872 39.583C24.9459 39.2019 24.4414 39.0886 24.0602 39.3299L24.0635 39.3266ZM21.3612 33.4834L20.6262 35.9333H15.5171V33.4834H21.3612ZM15.838 40.3923L16.8997 37.5667H20.6956L21.8871 40.3433C19.9256 40.9802 17.8156 40.9979 15.8438 40.394L15.838 40.3923Z" fill="#0CABDD"/>
<path d="M20.2883 27.756C20.3307 27.7627 20.3736 27.7663 20.4165 27.7666C20.8176 27.766 21.1588 27.4743 21.2217 27.0782C22.4185 21.337 26.438 16.5907 31.9037 14.4648C31.8236 14.7092 31.8655 14.9772 32.0166 15.1855C32.1676 15.3937 32.4093 15.5169 32.6665 15.5166C32.9777 15.5182 33.2627 15.3427 33.4015 15.0642L34.2182 13.4309C34.4193 13.0272 34.2552 12.5369 33.8515 12.3357L32.2182 11.5191C31.8145 11.3186 31.3247 11.4831 31.1238 11.8866C30.9475 12.2475 31.0638 12.6832 31.3966 12.9082C25.3488 15.2285 20.904 20.4756 19.6096 26.8226C19.5396 27.2677 19.8433 27.6854 20.2883 27.756Z" fill="#0CABDD"/>
<path d="M24.5003 5.71665C24.9513 5.71665 25.3169 5.35101 25.3169 4.89998C25.3169 4.44895 24.9513 4.08331 24.5003 4.08331C24.0492 4.08331 23.6836 4.44895 23.6836 4.89998C23.6836 5.35101 24.0492 5.71665 24.5003 5.71665Z" fill="#0CABDD"/>
<path d="M31.6112 26.3726C31.2923 26.0538 30.7753 26.0538 30.4564 26.3726L29.4005 27.4285L28.3445 26.3726C28.0241 26.0631 27.5147 26.0675 27.1997 26.3825C26.8847 26.6976 26.8803 27.2069 27.1898 27.5274L28.2457 28.5833L27.1898 29.6393C26.9775 29.8443 26.8923 30.1479 26.9671 30.4335C27.0418 30.719 27.2648 30.942 27.5503 31.0167C27.8359 31.0915 28.1395 31.0063 28.3445 30.794L29.4005 29.7381L30.4564 30.794C30.7769 31.1035 31.2862 31.0991 31.6013 30.7841C31.9163 30.4691 31.9207 29.9597 31.6112 29.6393L30.5552 28.5833L31.6112 27.5274C31.93 27.2085 31.93 26.6915 31.6112 26.3726Z" fill="#0CABDD"/>
<path d="M13.5455 22.05L12.4896 23.106C12.2773 23.311 12.1921 23.6146 12.2669 23.9002C12.3416 24.1857 12.5646 24.4087 12.8501 24.4834C13.1357 24.5582 13.4393 24.473 13.6443 24.2607L14.7003 23.2048L15.7562 24.2607C16.0767 24.5702 16.586 24.5658 16.9011 24.2508C17.2161 23.9358 17.2205 23.4264 16.911 23.106L15.8551 22.05L16.911 20.9941C17.2205 20.6736 17.2161 20.1643 16.9011 19.8492C16.586 19.5342 16.0767 19.5298 15.7562 19.8393L14.7003 20.8952L13.6443 19.8393C13.3239 19.5298 12.8145 19.5342 12.4995 19.8492C12.1845 20.1643 12.1801 20.6736 12.4896 20.9941L13.5455 22.05Z" fill="#0CABDD"/>
<path d="M17.3895 16.9107C17.7084 17.2295 18.2254 17.2295 18.5443 16.9107L19.6002 15.8547L20.6562 16.9107C20.9766 17.2202 21.486 17.2158 21.801 16.9007C22.116 16.5857 22.1204 16.0764 21.8109 15.7559L20.755 14.7L21.8109 13.644C22.1204 13.3236 22.116 12.8142 21.801 12.4992C21.486 12.1842 20.9766 12.1798 20.6562 12.4893L19.6002 13.5452L18.5443 12.4893C18.2238 12.1798 17.7145 12.1842 17.3994 12.4992C17.0844 12.8142 17.08 13.3236 17.3895 13.644L18.4454 14.7L17.3895 15.7559C17.0707 16.0748 17.0707 16.5918 17.3895 16.9107Z" fill="#0CABDD"/>
<path d="M31.8504 18.7833C30.4973 18.7833 29.4004 19.8802 29.4004 21.2333C29.4004 22.5864 30.4973 23.6833 31.8504 23.6833C33.2035 23.6833 34.3004 22.5864 34.3004 21.2333C34.3004 19.8802 33.2035 18.7833 31.8504 18.7833ZM31.8504 22.05C31.3994 22.05 31.0337 21.6844 31.0337 21.2333C31.0337 20.7823 31.3994 20.4167 31.8504 20.4167C32.3014 20.4167 32.6671 20.7823 32.6671 21.2333C32.6671 21.6844 32.3014 22.05 31.8504 22.05Z" fill="#0CABDD"/>
</svg>
