<svg width="63" height="63" viewBox="0 0 63 63" fill="none" xmlns="http://www.w3.org/2000/svg">
<g clip-path="url(#clip0)">
<mask id="mask0" mask-type="alpha" maskUnits="userSpaceOnUse" x="0" y="-6" width="71" height="75">
<path d="M10 13.5L7 10.5L6 2.5L28.5 -6L71 3.5V68.5H0V18.5L5.5 21.5L32 58L57 21L62.5 18.5L56.5 10L53 13.5H10Z" fill="#C4C4C4"/>
</mask>
<g mask="url(#mask0)">
<circle cx="31.5" cy="31.5" r="30" stroke="#0CABDD" stroke-width="2"/>
</g>
<circle cx="59" cy="18" r="3" stroke="#0CABDD" stroke-width="2"/>
<circle cx="5" cy="18" r="3" stroke="#0CABDD" stroke-width="2"/>
<path d="M26.5001 31L18.5001 13.5C18.1049 13.6857 14 15.5 14 15.5L22.5 33.5L18.9211 42L16 40.5L13.5 44.5C13.5 44.5 22 51 33.5 51C45 51 51.5 45.5 51.5 45.5L49.5 41L45.5 43L42.5 35H46V31H26.5001Z" stroke="#0CABDD" stroke-width="2"/>
<path d="M37.5002 35H27.1365L23.8643 44C30.5 46.5 34.6357 46.5 40.5 44.5L37.5002 35Z" stroke="#0CABDD" stroke-width="2"/>
<circle cx="34" cy="20" r="7.5" stroke="#0CABDD" stroke-width="2"/>
<path d="M34.9531 22.2383C34.9531 21.9297 34.877 21.6875 34.7246 21.5117C34.5723 21.3359 34.3047 21.1699 33.9219 21.0137C33.5391 20.8574 33.1855 20.6992 32.8613 20.5391C32.5371 20.3789 32.2578 20.1934 32.0234 19.9824C31.7891 19.7715 31.6094 19.5273 31.4844 19.25C31.3594 18.9727 31.2969 18.6367 31.2969 18.2422C31.2969 17.582 31.5195 17.0391 31.9648 16.6133C32.4102 16.1836 33.0039 15.9336 33.7461 15.8633V14.627H34.6777V15.8867C35.3926 15.9922 35.9531 16.2871 36.3594 16.7715C36.7695 17.252 36.9746 17.8633 36.9746 18.6055H34.9941C34.9941 18.1992 34.916 17.8867 34.7598 17.668C34.6035 17.4492 34.3809 17.3398 34.0918 17.3398C33.834 17.3398 33.6328 17.4219 33.4883 17.5859C33.3477 17.7461 33.2773 17.9688 33.2773 18.2539C33.2773 18.543 33.3594 18.7734 33.5234 18.9453C33.6875 19.1133 33.9512 19.2754 34.3145 19.4316C34.6777 19.584 35.0195 19.7441 35.3398 19.9121C35.6641 20.0762 35.9434 20.2637 36.1777 20.4746C36.4121 20.6855 36.5957 20.9316 36.7285 21.2129C36.8613 21.4941 36.9277 21.832 36.9277 22.2266C36.9277 22.8945 36.7148 23.4395 36.2891 23.8613C35.8672 24.2832 35.291 24.5293 34.5605 24.5996V25.7773H33.6289V24.5938C32.7773 24.5039 32.123 24.2129 31.666 23.7207C31.2129 23.2246 30.9863 22.5723 30.9863 21.7637H32.9609C32.9609 22.209 33.0586 22.5488 33.2539 22.7832C33.4531 23.0137 33.7344 23.1289 34.0977 23.1289C34.3633 23.1289 34.5723 23.0508 34.7246 22.8945C34.877 22.7344 34.9531 22.5156 34.9531 22.2383Z" fill="#0CABDD"/>
</g>
<defs>
<clipPath id="clip0">
<rect width="63" height="63" fill="white"/>
</clipPath>
</defs>
</svg>
