<svg id="bold" height="512" viewBox="0 0 24 24" width="512" xmlns="http://www.w3.org/2000/svg"><path d="m5 6c-1.654 0-3-1.346-3-3s1.346-3 3-3 3 1.346 3 3-1.346 3-3 3z"/><path d="m6.25 24h-2.5c-.965 0-1.75-.785-1.75-1.75v-5.382c0-.095-.053-.181-.138-.224l-.895-.447c-.596-.298-.967-.898-.967-1.565v-3.882c0-2.068 1.682-3.75 3.75-3.75h2.5c2.068 0 3.75 1.682 3.75 3.75v3.882c0 .667-.371 1.267-.967 1.565l-.895.447c-.085.043-.138.129-.138.224v5.382c0 .965-.785 1.75-1.75 1.75z"/><path d="m18.25 24h-.5c-.965 0-1.75-.785-1.75-1.75v-2.25h-2.25c-.965 0-1.75-.785-1.75-1.75v-.5c0-.965.785-1.75 1.75-1.75h2.25v-2.25c0-.965.785-1.75 1.75-1.75h.5c.965 0 1.75.785 1.75 1.75v2.25h2.25c.965 0 1.75.785 1.75 1.75v.5c0 .965-.785 1.75-1.75 1.75h-2.25v2.25c0 .965-.785 1.75-1.75 1.75z"/></svg>