<svg id="Glyph" enable-background="new 0 0 64 64" height="512" viewBox="0 0 64 64" width="512" xmlns="http://www.w3.org/2000/svg"><path d="m31 49v-4.261c5.291-2.32 9-7.601 9-13.739v-1.141c1.722-.446 3-1.997 3-3.859 0-1.202-.541-2.267-1.38-3h1.38v-6c0-7.18-5.82-13-13-13 0-1.105-.895-2-2-2h-11c-7.18 0-13 5.82-13 13v1.001c0 3.105 2.023 5.734 4.822 6.65-1.095.714-1.822 1.944-1.822 3.349 0 1.862 1.278 3.412 3 3.859v1.141c0 6.138 3.709 11.419 9 13.739v4.261l6 3zm-19-18v-8.1c2.282-.464 4-2.482 4-4.901v-.076c0-1.072.852-1.923 1.905-1.923h7.095c3 0 3-4 3-4 1.105 0 2 .895 2 2 0 4.632 3.501 8.443 8 8.941v8.059c0 7.168-5.832 13-13 13s-13-5.832-13-13z"/><circle cx="19" cy="27" r="2"/><circle cx="31" cy="27" r="2"/><path d="m29.77 34.639-1.54-1.277c-.876 1.056-2.023 1.638-3.23 1.638s-2.354-.582-3.23-1.639l-1.54 1.277c1.263 1.523 2.957 2.362 4.77 2.362s3.507-.839 4.77-2.361z"/><path d="m28 54-3-2-3 2 1.778 1.778-1.778 6.222h6l-1.778-6.222z"/><path d="m10.91 50.91 3.09 3.09-1 3 9 5-3-13z"/><path d="m11.712 54.54-3.097-3.097-.447.105c-3.614.851-6.168 4.076-6.168 7.788v2.664h15.881l-7.304-4.058z"/><path d="m36 54 3.09-3.09-8.09-1.91-3 13 9-5z"/><path d="m38.288 54.54 1.134 3.402-7.303 4.058h11.881v-5.172l-4-4z"/><path d="m60 36c-1.105 0-2 .895-2 2 0-1.105-.895-2-2-2s-2 .895-2 2c0-1.105-.895-2-2-2s-2 .895-2 2v-10c0-1.105-.895-2-2-2s-2 .895-2 2v19h-1v-2c0-2.209-1.791-4-4-4v10l5 5v6h16v-24c0-1.105-.895-2-2-2z"/><path d="m47 2v18h6v4l6-4h3v-18zm8 15h-2v-2h2zm4-6.219-4 1v1.219h-2v-2.781l4-1v-1.219h-5v1h-2v-3h9z"/></svg>