<svg id="Layer_5" enable-background="new 0 0 64 64" height="512" viewBox="0 0 64 64" width="512" xmlns="http://www.w3.org/2000/svg"><g><path d="m24 13h.016c.084-1.664 1.034-3.143 2.536-3.895l.448-.223.447.224c2.479 1.239 5.254 1.894 8.025 1.894h1.528c1.302 0 2.402.839 2.816 2h.184c.596 0 1.156.14 1.665.374.217-.559.335-1.157.335-1.756 0-1.756-.934-3.335-2.443-4.2-.513 1.075-1.44 1.931-2.624 2.326l-.617.205-.631-1.897.616-.205c1.015-.34 1.699-1.288 1.699-2.36 0-1.371-1.116-2.487-2.487-2.487h-6.513c-2.757 0-5 2.243-5 5v.414l-.769.769c-.794.794-1.231 1.849-1.231 2.973 0 .439.071.872.206 1.289.542-.275 1.146-.445 1.794-.445z"/><path d="m36.513 28.083-.159-.022-2.94 2.939 2.005 2.005z"/><path d="m58.497 42.457c-.022-.079-.056-.156-.08-.235-.886.421-1.86.677-2.886.747.304.956.469 1.974.469 3.031 0 5.523-4.477 10-10 10s-10-4.477-10-10c0-1.046.163-2.053.461-3h-5.461v5.271l2.356.755.146.517c.28.989.668 1.929 1.152 2.796l.263.468-1.13 2.195 3.212 3.211 2.195-1.129.468.262c.868.486 1.809.875 2.797 1.153l.517.146.753 2.355h4.541l.754-2.356.517-.146c.988-.279 1.929-.667 2.797-1.153l.468-.262 2.195 1.129 3.212-3.211-1.13-2.195.263-.468c.484-.867.872-1.807 1.152-2.796l.146-.517 2.356-.754v-4.541l-2.357-.755z"/><path d="m34.883 26.703-.309-1.136c-.809.276-1.673.433-2.574.433s-1.765-.157-2.574-.433l-.309 1.136 2.883 2.883z"/><path d="m39.411 21c-.612 1.507-1.668 2.786-3.008 3.673l.389 1.43 3.229.461c2.226.318 4.327 1.369 5.916 2.958 1.975 1.975 3.063 4.602 3.063 7.396v4.082h6c3.309 0 6-2.691 6-6s-2.691-6-6-6c-.27 0-.555.024-.897.075l-1.049.157-.096-1.056c-.423-4.661-4.273-8.176-8.958-8.176-.522 0-1.042.053-1.554.142-.678.529-1.52.858-2.446.858z"/><path d="m28.581 33.005 2.005-2.005-2.94-2.939-.159.022z"/><path d="m38 18v-4c0-.551-.448-1-1-1h-1.528c-2.895 0-5.793-.643-8.418-1.864-.659.488-1.054 1.258-1.054 2.1v4.764c0 3.309 2.691 6 6 6s6-2.691 6-6zm-9.789 1.658-.105-.21 1.789-.895.105.211c.381.762 1.147 1.236 2 1.236s1.619-.474 2-1.236l.105-.211 1.789.895-.105.211c-.722 1.444-2.174 2.341-3.789 2.341s-3.067-.897-3.789-2.342z"/><path d="m42 17c0-1.103-.897-2-2-2v3c0 .339-.028.672-.069 1h.069c1.103 0 2-.897 2-2z"/><path d="m41 41v-6h2v6h4v-4.082c0-2.26-.88-4.384-2.478-5.981-1.285-1.285-2.985-2.135-4.785-2.393l-1.239-.177-1.917 8.628-4.581-4.581-4.581 4.581-1.917-8.628-1.239.177c-1.8.257-3.5 1.107-4.785 2.393-1.598 1.597-2.478 3.721-2.478 5.981v4.082h4v-6h2v6z"/><path d="m23.979 26.564 3.229-.461.389-1.43c-1.34-.887-2.396-2.166-3.008-3.673h-.589c-2.186 0-3.962-1.763-3.994-3.941-.334-.038-.67-.059-1.006-.059-4.626 0-8.444 3.509-8.942 8.004 1.579.01 3.129.431 4.487 1.227l-1.012 1.726c-1.067-.626-2.289-.957-3.533-.957-3.859 0-7 3.14-7 7s3.141 7 7 7h5v-4.082c0-2.794 1.088-5.421 3.063-7.396 1.589-1.589 3.691-2.64 5.916-2.958z"/><path d="m24 19h.069c-.041-.328-.069-.661-.069-1v-3c-1.103 0-2 .897-2 2s.897 2 2 2z"/><path d="m40 46c0 3.314 2.686 6 6 6s6-2.686 6-6c0-1.096-.304-2.116-.817-3h-10.366c-.513.884-.817 1.904-.817 3z"/></g></svg>