<svg width="512" height="512" viewBox="0 0 512 512" fill="none" xmlns="http://www.w3.org/2000/svg">
<g clip-path="url(#clip0)">
<path d="M110.933 119.467C96.7948 119.467 85.3333 130.928 85.3333 145.067V486.4C85.3333 500.538 96.7948 512 110.933 512H401.067C415.205 512 426.667 500.538 426.667 486.4V204.8C426.667 204.621 426.573 204.467 426.564 204.279C426.514 203.508 426.359 202.748 426.103 202.018C426.024 201.746 425.93 201.478 425.822 201.216C425.423 200.332 424.877 199.521 424.209 198.818L424.158 198.758L347.358 121.958C346.649 121.271 345.822 120.716 344.917 120.32C344.681 120.218 344.439 120.129 344.192 120.055C343.429 119.782 342.629 119.621 341.82 119.578C341.658 119.578 341.521 119.484 341.359 119.484H315.733V102.4H332.8C339.848 102.399 346.171 98.065 348.714 91.4914C351.258 84.9179 349.498 77.4572 344.286 72.7125L344.209 72.6442L267.477 4.4373C261.011 -1.49656 251.088 -1.52246 244.591 4.37756L167.731 72.7125C162.521 77.4551 160.761 84.9116 163.3 91.4835C165.839 98.0554 172.155 102.392 179.2 102.4H196.267V119.467H110.933ZM349.867 148.599L397.534 196.267H358.4C353.687 196.267 349.867 192.446 349.867 187.733V148.599ZM332.8 136.533V187.733C332.8 201.872 344.262 213.333 358.4 213.333H409.6V486.4C409.6 491.113 405.78 494.933 401.067 494.933H110.933C106.22 494.933 102.4 491.113 102.4 486.4V145.067C102.4 140.354 106.22 136.533 110.933 136.533H196.267V162.133C196.267 171.559 203.908 179.2 213.333 179.2H298.667C308.092 179.2 315.733 171.559 315.733 162.133V136.533H332.8ZM179.149 85.393L256.068 17.1264L332.8 85.3333H315.733C306.308 85.3333 298.667 92.9743 298.667 102.4V162.133H213.333V102.4C213.333 92.9743 205.692 85.3333 196.267 85.3333L179.149 85.393Z" fill="#0CABDD"/>
<path d="M298.667 264.533H213.333C203.908 264.533 196.267 272.174 196.267 281.6V298.667C196.267 308.092 203.908 315.733 213.333 315.733H298.667C308.092 315.733 315.733 308.092 315.733 298.667V281.6C315.733 272.174 308.092 264.533 298.667 264.533ZM298.667 298.667H213.333V281.6H298.667V298.667Z" fill="#0CABDD"/>
<path d="M298.667 196.267H213.333C203.908 196.267 196.267 203.908 196.267 213.333V230.4C196.267 239.826 203.908 247.467 213.333 247.467H298.667C308.092 247.467 315.733 239.826 315.733 230.4V213.333C315.733 203.908 308.092 196.267 298.667 196.267ZM298.667 230.4H213.333V213.333H298.667V230.4Z" fill="#0CABDD"/>
<path d="M128 162.133C123.287 162.133 119.467 165.954 119.467 170.667V187.733C119.467 192.446 123.287 196.267 128 196.267C132.713 196.267 136.533 192.446 136.533 187.733V170.667C136.533 165.954 132.713 162.133 128 162.133Z" fill="#0CABDD"/>
<path d="M128 213.333C123.287 213.333 119.467 217.154 119.467 221.867V366.933C119.467 371.646 123.287 375.467 128 375.467C132.713 375.467 136.533 371.646 136.533 366.933V221.867C136.533 217.154 132.713 213.333 128 213.333Z" fill="#0CABDD"/>
<path d="M42.6667 503.467C42.6667 508.179 46.4872 512 51.2 512C55.9128 512 59.7333 508.179 59.7333 503.467V469.333C59.7333 464.62 55.9128 460.8 51.2 460.8C46.4872 460.8 42.6667 464.62 42.6667 469.333V503.467Z" fill="#0CABDD"/>
<path d="M51.2 435.2C55.9128 435.2 59.7333 431.379 59.7333 426.667V238.933C59.7333 234.22 55.9128 230.4 51.2 230.4C46.4872 230.4 42.6667 234.22 42.6667 238.933V426.667C42.6667 431.379 46.4872 435.2 51.2 435.2Z" fill="#0CABDD"/>
<path d="M452.267 503.467C452.267 508.179 456.087 512 460.8 512C465.513 512 469.333 508.179 469.333 503.467V469.333C469.333 464.62 465.513 460.8 460.8 460.8C456.087 460.8 452.267 464.62 452.267 469.333V503.467Z" fill="#0CABDD"/>
<path d="M460.8 435.2C465.513 435.2 469.333 431.379 469.333 426.667V238.933C469.333 234.22 465.513 230.4 460.8 230.4C456.087 230.4 452.267 234.22 452.267 238.933V426.667C452.267 431.379 456.087 435.2 460.8 435.2Z" fill="#0CABDD"/>
<path d="M222.67 372.412C225.109 373.671 226.328 375.677 226.328 378.43C226.328 380.082 225.738 381.695 224.558 383.268C223.299 384.92 221.687 385.746 219.72 385.746C218.383 385.746 217.045 385.392 215.708 384.684C211.853 382.875 207.684 381.97 203.2 381.97C197.693 381.97 192.895 383.15 188.804 385.51C184.713 387.791 181.567 391.056 179.364 395.304C177.161 399.473 176.06 404.272 176.06 409.7C176.06 418.983 178.538 426.023 183.494 430.822C188.529 435.621 195.097 438.02 203.2 438.02C207.999 438.02 212.168 437.115 215.708 435.306C217.124 434.677 218.383 434.362 219.484 434.362C221.529 434.362 223.26 435.227 224.676 436.958C225.856 438.453 226.446 440.065 226.446 441.796C226.446 443.055 226.131 444.195 225.502 445.218C224.873 446.241 223.968 447.027 222.788 447.578C216.652 450.646 210.123 452.18 203.2 452.18C195.491 452.18 188.411 450.567 181.96 447.342C175.509 444.038 170.357 439.2 166.502 432.828C162.647 426.456 160.72 418.747 160.72 409.7C160.72 401.676 162.529 394.478 166.148 388.106C169.845 381.734 174.919 376.778 181.37 373.238C187.821 369.619 195.097 367.81 203.2 367.81C210.201 367.81 216.691 369.344 222.67 372.412ZM265.38 452.18C259.716 452.18 254.682 451.472 250.276 450.056C245.871 448.64 241.741 446.241 237.886 442.858C235.762 440.97 234.7 438.885 234.7 436.604C234.7 434.795 235.369 433.221 236.706 431.884C238.044 430.468 239.656 429.76 241.544 429.76C243.039 429.76 244.376 430.232 245.556 431.176C248.703 433.772 251.771 435.66 254.76 436.84C257.75 438.02 261.29 438.61 265.38 438.61C269.786 438.61 273.562 437.627 276.708 435.66C279.934 433.693 281.546 431.255 281.546 428.344C281.546 424.804 279.973 422.051 276.826 420.084C273.68 418.039 268.684 416.505 261.84 415.482C244.612 412.965 235.998 404.941 235.998 391.41C235.998 386.454 237.296 382.167 239.892 378.548C242.488 374.851 246.028 372.058 250.512 370.17C254.996 368.203 259.992 367.22 265.498 367.22C270.454 367.22 275.096 367.967 279.422 369.462C283.828 370.957 287.486 372.923 290.396 375.362C292.678 377.171 293.818 379.256 293.818 381.616C293.818 383.425 293.15 385.038 291.812 386.454C290.475 387.791 288.902 388.46 287.092 388.46C285.912 388.46 284.85 388.106 283.906 387.398C281.861 385.746 278.99 384.251 275.292 382.914C271.674 381.498 268.409 380.79 265.498 380.79C260.542 380.79 256.688 381.734 253.934 383.622C251.26 385.431 249.922 387.831 249.922 390.82C249.922 394.203 251.299 396.759 254.052 398.49C256.884 400.221 261.29 401.637 267.268 402.738C274.034 403.918 279.422 405.452 283.434 407.34C287.525 409.149 290.593 411.667 292.638 414.892C294.684 418.039 295.706 422.247 295.706 427.518C295.706 432.474 294.29 436.84 291.458 440.616C288.705 444.313 285.008 447.185 280.366 449.23C275.725 451.197 270.73 452.18 265.38 452.18ZM369.537 368.164C371.503 368.164 373.195 368.833 374.611 370.17C376.105 371.507 376.853 373.12 376.853 375.008C376.853 376.031 376.617 377.093 376.145 378.194L346.999 446.398C346.291 447.893 345.307 449.033 344.049 449.82C342.79 450.607 341.453 451 340.037 451C338.699 450.921 337.441 450.528 336.261 449.82C335.159 449.033 334.294 447.932 333.665 446.516L304.519 378.076C304.125 377.289 303.929 376.306 303.929 375.126C303.929 373.002 304.715 371.311 306.289 370.052C307.862 368.715 309.475 368.046 311.127 368.046C312.464 368.046 313.723 368.439 314.903 369.226C316.083 370.013 316.987 371.153 317.617 372.648L341.335 428.462L363.047 372.648C363.676 371.232 364.581 370.131 365.761 369.344C366.941 368.557 368.199 368.164 369.537 368.164Z" fill="#0CABDD"/>
</g>
<defs>
<clipPath id="clip0">
<rect width="512" height="512" fill="white"/>
</clipPath>
</defs>
</svg>
