<svg width="68" height="68" viewBox="0 0 68 68" fill="none" xmlns="http://www.w3.org/2000/svg">
<g clip-path="url(#clip0)">
<path d="M66.8665 45.3331H63.4665V41.9331C63.4665 41.3072 62.9591 40.7998 62.3332 40.7998H58.9332V7.93321C58.9332 7.30733 58.4257 6.79988 57.7999 6.79988H15.8666V1.13322C15.8666 0.715419 15.6364 0.331371 15.2679 0.133813C14.8993 -0.063192 14.4522 -0.0416101 14.1047 0.190258L11.3333 2.04022L8.56251 0.190258C8.21443 -0.0416101 7.7673 -0.063192 7.39874 0.133813C7.03019 0.331371 6.79998 0.715419 6.79998 1.13322V6.79988H1.13333C0.507453 6.79988 0 7.30733 0 7.93321V44.1998C0 44.8257 0.507453 45.3331 1.13333 45.3331H6.79998V57.7997C6.79998 58.2181 7.03019 58.6021 7.39874 58.7992C7.7673 58.9967 8.21443 58.9751 8.56251 58.7427L11.3333 56.8933L14.1047 58.7405C14.4516 58.9724 14.8988 58.9945 15.2673 58.7975C15.6353 58.601 15.8661 58.2175 15.8666 57.7997V45.3331H20.3999V62.3331C20.3999 62.9589 20.9074 63.4664 21.5333 63.4664H24.9333V66.8664C24.9333 67.4923 25.4407 67.9997 26.0666 67.9997H66.8665C67.4924 67.9997 67.9998 67.4923 67.9998 66.8664V46.4664C67.9998 45.8406 67.4924 45.3331 66.8665 45.3331ZM9.06664 3.25047L10.7047 4.34285C11.0854 4.59685 11.5818 4.59685 11.9625 4.34285L13.6 3.25047V6.79988H9.06664V3.25047ZM13.6 55.683L11.9625 54.5901C11.5818 54.3361 11.0854 54.3361 10.7047 54.5901L9.06664 55.683V45.3331H13.6V55.683ZM20.3999 41.9331V43.0664H2.26666V9.06654H56.6665V40.7998H21.5333C20.9074 40.7998 20.3999 41.3072 20.3999 41.9331ZM22.6666 43.0664H61.1998V61.1997H22.6666V43.0664ZM65.7332 65.7331H27.1999V63.4664H62.3332C62.9591 63.4664 63.4665 62.9589 63.4665 62.3331V47.5998H65.7332V65.7331Z" fill="#1EC9FF"/>
<path d="M30.6 48.7333C28.7223 48.7333 27.2 50.2556 27.2 52.1333C27.2 54.0115 28.7223 55.5333 30.6 55.5333C32.4776 55.5333 34 54.0115 34 52.1333C34 50.2556 32.4776 48.7333 30.6 48.7333ZM30.6 53.2666C29.9741 53.2666 29.4666 52.7592 29.4666 52.1333C29.4666 51.5074 29.9741 50.9999 30.6 50.9999C31.2258 50.9999 31.7333 51.5074 31.7333 52.1333C31.7333 52.7592 31.2258 53.2666 30.6 53.2666Z" fill="#1EC9FF"/>
<path d="M53.2667 48.7333C51.3891 48.7333 49.8667 50.2556 49.8667 52.1333C49.8667 54.0115 51.3891 55.5333 53.2667 55.5333C55.1443 55.5333 56.6667 54.0115 56.6667 52.1333C56.6667 50.2556 55.1443 48.7333 53.2667 48.7333ZM53.2667 53.2666C52.6408 53.2666 52.1334 52.7592 52.1334 52.1333C52.1334 51.5074 52.6408 50.9999 53.2667 50.9999C53.8926 50.9999 54.4 51.5074 54.4 52.1333C54.4 52.7592 53.8926 53.2666 53.2667 53.2666Z" fill="#1EC9FF"/>
<path d="M41.9333 48.7334C42.5592 48.7334 43.0667 49.2408 43.0667 49.8667H45.3333C45.3272 48.4312 44.4202 47.154 43.0667 46.6753V45.3334H40.8V46.6753C39.24 47.2248 38.3037 48.8197 38.5842 50.4494C38.8642 52.0797 40.2793 53.27 41.9333 53.2667C42.5592 53.2667 43.0667 53.7742 43.0667 54.4C43.0667 55.0259 42.5592 55.5334 41.9333 55.5334C41.3074 55.5334 40.8 55.0259 40.8 54.4H38.5333C38.5394 55.8361 39.4464 57.1133 40.8 57.5914V58.9334H43.0667V57.5914C44.6267 57.0419 45.563 55.4476 45.283 53.8173C45.0024 52.1876 43.5874 50.9973 41.9333 51C41.3074 51 40.8 50.4926 40.8 49.8667C40.8 49.2408 41.3074 48.7334 41.9333 48.7334Z" fill="#1EC9FF"/>
<path d="M45.9 20.5499L30.0333 11.4833C29.6852 11.2841 29.2575 11.2841 28.9094 11.4833L13.0427 20.5499C12.6896 20.7514 12.4722 21.1271 12.4722 21.5333C12.4722 21.94 12.6896 22.3152 13.0427 22.5172L14.7427 23.4862V31.7333H17.0094V24.7817L19.276 26.0772V32.8666C19.276 33.1671 19.3956 33.4554 19.6081 33.6679L20.9351 34.9961C25.6521 39.7126 33.2994 39.7126 38.0164 34.9961L39.3435 33.6679C39.5532 33.4543 39.6688 33.166 39.6666 32.8666V26.0772L45.9 22.5172C46.253 22.3152 46.4705 21.94 46.4705 21.5333C46.4705 21.1271 46.253 20.7514 45.9 20.5499ZM37.4 32.3974L36.405 33.394C32.5728 37.2246 26.361 37.2246 22.5283 33.394L21.5333 32.3974V27.3726L28.9 31.5839C29.2486 31.7831 29.6758 31.7831 30.0244 31.5839L37.4 27.3726V32.3974ZM29.4666 29.2956L15.8849 21.5333L29.4666 13.7715L43.0484 21.5333L29.4666 29.2956Z" fill="#1EC9FF"/>
</g>
<defs>
<clipPath id="clip0">
<rect width="68" height="68" fill="white"/>
</clipPath>
</defs>
</svg>
