<svg width="69" height="69" viewBox="0 0 69 69" fill="none" xmlns="http://www.w3.org/2000/svg">
<path d="M66.3338 21.7242L56.0625 15.3493V3.23438C56.0625 2.63925 55.5795 2.15625 54.9844 2.15625H46.3594C45.7643 2.15625 45.2812 2.63925 45.2812 3.23438V8.65734L35.0682 2.31797C34.7199 2.10234 34.2801 2.10234 33.9307 2.31797L2.66512 21.7242C2.34923 21.9215 2.15625 22.2676 2.15625 22.6406V29.1094H2.1638C2.1638 29.2075 2.16919 29.3067 2.19722 29.4048C2.32983 29.8684 2.75245 30.1875 3.23438 30.1875H6.46875V65.7656C6.46875 66.3607 6.95175 66.8438 7.54688 66.8438H61.4531C62.0482 66.8438 62.5312 66.3607 62.5312 65.7656V53.9062H63.6094C65.3926 53.9062 66.8438 52.4551 66.8438 50.6719V37.7344C66.8438 35.9512 65.3926 34.5 63.6094 34.5H62.5312V30.1875H65.7656C66.2475 30.1875 66.6702 29.8684 66.8028 29.4048C66.8308 29.3067 66.8362 29.2075 66.8362 29.1094H66.8438V22.6406C66.8438 22.2676 66.6508 21.9215 66.3338 21.7242ZM47.4375 4.3125H53.9062V14.0102L47.4375 9.9953V4.3125ZM34.5 4.50333L64.6875 23.2401V27.1709L35.0682 8.78672C34.7199 8.57109 34.2801 8.57109 33.9307 8.78672L4.3125 27.1709V23.2401L34.5 4.50333ZM7.01536 28.0312L34.5 10.9721L61.9846 28.0312H7.01536ZM25.875 64.6875H15.0938V44.2031H25.875V64.6875ZM49.5938 53.9062V64.6875H47.4375V53.9062H49.5938ZM60.375 64.6875H51.75V53.9062H60.375V64.6875ZM64.6875 37.7344V38.8125H61.4531V40.9688H64.6875V43.125H59.2969V45.2812H64.6875V50.6719C64.6875 51.2659 64.2034 51.75 63.6094 51.75H33.4219C32.8278 51.75 32.3438 51.2659 32.3438 50.6719V49.5938H37.7344V47.4375H32.3438V45.2812H40.9688V43.125H32.3438V37.7344C32.3438 37.1403 32.8278 36.6562 33.4219 36.6562H63.6094C64.2034 36.6562 64.6875 37.1403 64.6875 37.7344ZM60.375 34.5H33.4219C31.6387 34.5 30.1875 35.9512 30.1875 37.7344V50.6719C30.1875 52.4551 31.6387 53.9062 33.4219 53.9062H45.2812V64.6875H28.0312V43.125C28.0312 42.5299 27.5483 42.0469 26.9531 42.0469H14.0156C13.4205 42.0469 12.9375 42.5299 12.9375 43.125V64.6875H8.625V30.1875H60.375V34.5Z" fill="#1EC9FF"/>
<path d="M29.1094 20.4844C29.1094 23.4568 31.5276 25.875 34.5 25.875C37.4724 25.875 39.8906 23.4568 39.8906 20.4844C39.8906 17.512 37.4724 15.0938 34.5 15.0938C31.5276 15.0938 29.1094 17.512 29.1094 20.4844ZM37.7344 20.4844C37.7344 22.2676 36.2832 23.7188 34.5 23.7188C32.7168 23.7188 31.2656 22.2676 31.2656 20.4844C31.2656 18.7012 32.7168 17.25 34.5 17.25C36.2832 17.25 37.7344 18.7012 37.7344 20.4844Z" fill="#1EC9FF"/>
<path d="M17.25 52.8281H19.4062V54.9844H17.25V52.8281Z" fill="#1EC9FF"/>
<path d="M46.3594 48.5156H47.4375V49.5938H49.5938V48.5156H50.6719C51.267 48.5156 51.75 48.0326 51.75 47.4375V44.2031C51.75 43.608 51.267 43.125 50.6719 43.125H47.4375V42.0469H51.75V40.9688C51.75 40.3736 51.267 39.8906 50.6719 39.8906H49.5938V38.8125H47.4375V39.8906H46.3594C45.7643 39.8906 45.2812 40.3736 45.2812 40.9688V44.2031C45.2812 44.7983 45.7643 45.2812 46.3594 45.2812H49.5938V46.3594H45.2812V47.4375C45.2812 48.0326 45.7643 48.5156 46.3594 48.5156Z" fill="#1EC9FF"/>
<path d="M57.1406 38.8125H59.2969V40.9688H57.1406V38.8125Z" fill="#1EC9FF"/>
</svg>
