<?xml version="1.0"?>
<svg xmlns="http://www.w3.org/2000/svg" xmlns:xlink="http://www.w3.org/1999/xlink" xmlns:svgjs="http://svgjs.com/svgjs" version="1.1" width="512" height="512" x="0" y="0" viewBox="0 0 64 64" style="enable-background:new 0 0 512 512" xml:space="preserve" class=""><g><g xmlns="http://www.w3.org/2000/svg" id="Person"><path d="m55 40h-.73a8.006 8.006 0 0 0 2.66-5h.07a3.009 3.009 0 0 0 3-3 2.973 2.973 0 0 0 -1.22-2.4.981.981 0 0 0 .22-.6v-1a10.006 10.006 0 0 0 -9-9.95v-13.05a3.009 3.009 0 0 0 -3-3h-34a1.033 1.033 0 0 0 -.71.29l-10 10a1.033 1.033 0 0 0 -.29.71v46a3.009 3.009 0 0 0 3 3h56a1 1 0 0 0 1-1v-14a7.008 7.008 0 0 0 -7-7zm0-6a6 6 0 0 1 -12 0v-4.35l7.85-3.49 4.15 3.32zm-2 8v3.52l-1-.4v-3.12zm-3.63 2.07a1.048 1.048 0 0 0 -.74 0l-.63.25v-2.32h2v2.32zm.63 2.41v8.11l-1 1-1-1v-8.11l1-.4zm-4-4.48v3.12l-1 .4v-3.52zm12-10a1 1 0 0 1 -1 1v-2a1 1 0 0 1 1 1zm-1-4h-.65l-4.73-3.78a.987.987 0 0 0 -1.03-.13l-8.8 3.91h-.79a8 8 0 0 1 16 0zm-45-22.59v5.59a1 1 0 0 1 -1 1h-5.59zm24 41.59v13h-31a1 1 0 0 1 -1-1v-45h7a3.009 3.009 0 0 0 3-3v-7h33a1 1 0 0 1 1 1v13.05a9.933 9.933 0 0 0 -4.97 1.95h-7.03v2h5.02a9.565 9.565 0 0 0 -1.18 2h-3.84v2h3.2a10.2 10.2 0 0 0 -.2 2h-3v2h2.78a2.974 2.974 0 0 0 -.78 2h-4v2h4.78a2.986 2.986 0 0 0 2.22 1h.07a8.006 8.006 0 0 0 2.66 5h-.73a7.008 7.008 0 0 0 -7 7zm5-16v2a1 1 0 0 1 0-2zm19 29h-2v-11h-2v11h-14v-11h-2v11h-2v-13a5 5 0 0 1 5-5v5a1 1 0 0 0 1.37.93l1.63-.65v7.72a1.033 1.033 0 0 0 .29.71l2 2a1.014 1.014 0 0 0 1.42 0l2-2a1.033 1.033 0 0 0 .29-.71v-7.72l1.63.65a.937.937 0 0 0 .37.07 1 1 0 0 0 1-1v-5a5 5 0 0 1 5 5z" fill="#0cabdd" data-original="#000000" style="" class=""/><path d="m30 25a9 9 0 1 0 -9 9 9.01 9.01 0 0 0 9-9zm-16 0a7 7 0 1 1 7 7 7.009 7.009 0 0 1 -7-7z" fill="#0cabdd" data-original="#000000" style="" class=""/><path d="m21 20a5.006 5.006 0 0 0 -5 5h2a3 3 0 0 1 3-3z" fill="#0cabdd" data-original="#000000" style="" class=""/><path d="m25 40h-1v-2.363a13 13 0 1 0 -6 0v2.363h-1a1 1 0 0 0 -1 1v12a5 5 0 0 0 10 0v-12a1 1 0 0 0 -1-1zm-15-15a11 11 0 1 1 11 11 11.013 11.013 0 0 1 -11-11zm10 12.949c.331.026.662.051 1 .051s.669-.025 1-.051v2.051h-2zm4 15.051a3 3 0 0 1 -6 0v-11h6z" fill="#0cabdd" data-original="#000000" style="" class=""/><path d="m20 44h2v2h-2z" fill="#0cabdd" data-original="#000000" style="" class=""/><path d="m20 48h2v6h-2z" fill="#0cabdd" data-original="#000000" style="" class=""/><path d="m18 8h26v2h-26z" fill="#0cabdd" data-original="#000000" style="" class=""/><path d="m30 12h14v2h-14z" fill="#0cabdd" data-original="#000000" style="" class=""/><path d="m34 16h10v2h-10z" fill="#0cabdd" data-original="#000000" style="" class=""/><path d="m30 36h10v2h-10z" fill="#0cabdd" data-original="#000000" style="" class=""/><path d="m28 40h6v2h-6z" fill="#0cabdd" data-original="#000000" style="" class=""/><path d="m28 44h6v2h-6z" fill="#0cabdd" data-original="#000000" style="" class=""/><path d="m28 48h6v2h-6z" fill="#0cabdd" data-original="#000000" style="" class=""/><path d="m28 52h6v2h-6z" fill="#0cabdd" data-original="#000000" style="" class=""/><path d="m28 56h6v2h-6z" fill="#0cabdd" data-original="#000000" style="" class=""/><path d="m8 40h6v2h-6z" fill="#0cabdd" data-original="#000000" style="" class=""/><path d="m8 44h6v2h-6z" fill="#0cabdd" data-original="#000000" style="" class=""/><path d="m8 48h6v2h-6z" fill="#0cabdd" data-original="#000000" style="" class=""/><path d="m8 52h6v2h-6z" fill="#0cabdd" data-original="#000000" style="" class=""/><path d="m8 56h6v2h-6z" fill="#0cabdd" data-original="#000000" style="" class=""/></g></g></svg>
