<svg width="63" height="63" viewBox="0 0 63 63" fill="none" xmlns="http://www.w3.org/2000/svg">
<g clip-path="url(#clip0)">
<path d="M59.6162 41.7936C60.126 41.7936 60.5391 41.3805 60.5391 40.8708V36.8525C60.5391 33.2046 57.7637 30.1931 54.2137 29.8175C54.3254 29.5173 54.3867 29.193 54.3867 28.8545C54.3867 27.8218 53.8179 26.9198 52.9775 26.444L55.1272 22.5028C55.4948 21.8289 55.4804 21.0326 55.0886 20.3726C54.6968 19.7126 54.0044 19.3184 53.2367 19.3184H46.1426V2.76855C46.1426 1.24204 44.9005 0 43.374 0H13.2275C12.7179 0 12.3047 0.413068 12.3047 0.922852C12.3047 1.43263 12.7179 1.8457 13.2275 1.8457H43.374C43.8829 1.8457 44.2969 2.25963 44.2969 2.76855V19.3184H40.6055V7.0752C40.6055 6.22703 39.9155 5.53711 39.0674 5.53711H9.53613C8.68797 5.53711 7.99805 6.22703 7.99805 7.0752V21.8408C7.99805 22.689 8.68797 23.3789 9.53613 23.3789H37.882L39.5538 26.444C38.7134 26.9198 38.1445 27.8218 38.1445 28.8545C38.1445 29.193 38.2058 29.5173 38.3175 29.8175C34.7675 30.1931 31.9922 33.2046 31.9922 36.8525V55.9248C31.9922 57.9946 32.8856 59.8594 34.3068 61.1543H5.22949C4.72057 61.1543 4.30664 60.7404 4.30664 60.2314V2.76855C4.30664 2.25963 4.72057 1.8457 5.22949 1.8457H8.9209C9.43056 1.8457 9.84375 1.43263 9.84375 0.922852C9.84375 0.413068 9.43068 0 8.9209 0H5.22949C3.70285 0 2.46094 1.24204 2.46094 2.76855V60.2314C2.46094 61.758 3.70285 63 5.22949 63H53.4639C57.3652 63 60.5391 59.8261 60.5391 55.9248V45.1774C60.5391 44.6676 60.126 44.2545 59.6162 44.2545C59.1064 44.2545 58.6934 44.6676 58.6934 45.1774V55.9248C58.6934 58.8084 56.3475 61.1543 53.4639 61.1543H39.0674C36.1838 61.1543 33.8379 58.8084 33.8379 55.9248V36.8525C33.8379 33.9689 36.1838 31.623 39.0674 31.623H53.4639C56.3475 31.623 58.6934 33.9689 58.6934 36.8525V40.8708C58.6934 41.3805 59.1064 41.7936 59.6162 41.7936ZM40.9131 29.7773C40.4042 29.7773 39.9902 29.3634 39.9902 28.8545C39.9902 28.3456 40.4042 27.9316 40.9131 27.9316H51.6182C52.1271 27.9316 52.541 28.3456 52.541 28.8545C52.541 29.3634 52.1271 29.7773 51.6182 29.7773H40.9131ZM22.7637 13.5352H16.6113V7.38281H22.7637V13.5352ZM24.6094 7.38281H30.7617V13.5352H24.6094V7.38281ZM22.7637 15.3809V21.5332H16.6113V15.3809H22.7637ZM24.6094 15.3809H30.7617V21.5332H24.6094V15.3809ZM32.6074 15.3809H38.7598V19.3849C38.2131 19.5229 37.7409 19.8705 37.4428 20.3726C37.2289 20.7329 37.1283 21.1339 37.1401 21.5333H32.6074V15.3809ZM38.7598 13.5352H32.6074V7.38281H38.7598V13.5352ZM14.7656 7.38281V13.5352H9.84375V7.38281H14.7656ZM9.84375 15.3809H14.7656V21.5332H9.84375V15.3809ZM39.2945 21.1641H53.2368C53.4995 21.2132 53.5896 21.3648 53.5069 21.6188L51.0704 26.0859H41.4609L39.0243 21.6188C38.9417 21.3648 39.0318 21.2132 39.2945 21.1641Z" fill="#1EC9FF"/>
<path d="M10.7666 47.373C12.2932 47.373 13.5352 46.131 13.5352 44.6045C13.5352 43.078 12.2932 41.8359 10.7666 41.8359C9.23996 41.8359 7.99805 43.078 7.99805 44.6045C7.99805 46.131 9.23996 47.373 10.7666 47.373ZM10.7666 43.6816C11.2755 43.6816 11.6895 44.0956 11.6895 44.6045C11.6895 45.1134 11.2755 45.5273 10.7666 45.5273C10.2577 45.5273 9.84375 45.1134 9.84375 44.6045C9.84375 44.0956 10.2577 43.6816 10.7666 43.6816Z" fill="#1EC9FF"/>
<path d="M24.9375 45.5273C24.4279 45.5273 24.0147 45.9404 24.0147 46.4502C24.0147 46.96 24.4279 47.373 24.9375 47.373H27.3164C27.8261 47.373 28.2392 46.96 28.2392 46.4502C28.2392 45.9404 27.8261 45.5273 27.3164 45.5273H24.9375Z" fill="#1EC9FF"/>
<path d="M16.2422 47.373H21.2461C21.7558 47.373 22.169 46.96 22.169 46.4502C22.169 45.9404 21.7558 45.5273 21.2461 45.5273H16.2422C15.7325 45.5273 15.3193 45.9404 15.3193 46.4502C15.3193 46.96 15.7325 47.373 16.2422 47.373Z" fill="#1EC9FF"/>
<path d="M16.2422 43.6816H29.1621C29.6718 43.6816 30.085 43.2686 30.085 42.7588C30.085 42.249 29.6718 41.8359 29.1621 41.8359H16.2422C15.7325 41.8359 15.3193 42.249 15.3193 42.7588C15.3193 43.2686 15.7325 43.6816 16.2422 43.6816Z" fill="#1EC9FF"/>
<path d="M10.7666 39.9902C12.2932 39.9902 13.5352 38.7482 13.5352 37.2217C13.5352 35.6952 12.2932 34.4531 10.7666 34.4531C9.23996 34.4531 7.99805 35.6952 7.99805 37.2217C7.99805 38.7482 9.23996 39.9902 10.7666 39.9902ZM10.7666 36.2988C11.2755 36.2988 11.6895 36.7128 11.6895 37.2217C11.6895 37.7306 11.2755 38.1445 10.7666 38.1445C10.2577 38.1445 9.84375 37.7306 9.84375 37.2217C9.84375 36.7128 10.2577 36.2988 10.7666 36.2988Z" fill="#1EC9FF"/>
<path d="M24.9375 38.1445C24.4279 38.1445 24.0147 38.5576 24.0147 39.0674C24.0147 39.5772 24.4279 39.9902 24.9375 39.9902H27.3164C27.8261 39.9902 28.2392 39.5772 28.2392 39.0674C28.2392 38.5576 27.8261 38.1445 27.3164 38.1445H24.9375Z" fill="#1EC9FF"/>
<path d="M16.2422 39.9902H21.2461C21.7558 39.9902 22.169 39.5772 22.169 39.0674C22.169 38.5576 21.7558 38.1445 21.2461 38.1445H16.2422C15.7325 38.1445 15.3193 38.5576 15.3193 39.0674C15.3193 39.5772 15.7325 39.9902 16.2422 39.9902Z" fill="#1EC9FF"/>
<path d="M16.2422 36.2988H29.1621C29.6718 36.2988 30.085 35.8858 30.085 35.376C30.085 34.8662 29.6718 34.4531 29.1621 34.4531H16.2422C15.7325 34.4531 15.3193 34.8662 15.3193 35.376C15.3193 35.8858 15.7325 36.2988 16.2422 36.2988Z" fill="#1EC9FF"/>
<path d="M10.7666 27.0703C9.23996 27.0703 7.99805 28.3123 7.99805 29.8389C7.99805 31.3654 9.23996 32.6074 10.7666 32.6074C12.2932 32.6074 13.5352 31.3654 13.5352 29.8389C13.5352 28.3123 12.2932 27.0703 10.7666 27.0703ZM10.7666 30.7617C10.2577 30.7617 9.84375 30.3478 9.84375 29.8389C9.84375 29.3299 10.2577 28.916 10.7666 28.916C11.2755 28.916 11.6895 29.3299 11.6895 29.8389C11.6895 30.3478 11.2755 30.7617 10.7666 30.7617Z" fill="#1EC9FF"/>
<path d="M24.9375 30.7617C24.4279 30.7617 24.0147 31.1748 24.0147 31.6846C24.0147 32.1944 24.4279 32.6074 24.9375 32.6074H27.3164C27.8261 32.6074 28.2392 32.1944 28.2392 31.6846C28.2392 31.1748 27.8261 30.7617 27.3164 30.7617H24.9375Z" fill="#1EC9FF"/>
<path d="M16.2422 32.6074H21.2461C21.7558 32.6074 22.169 32.1944 22.169 31.6846C22.169 31.1748 21.7558 30.7617 21.2461 30.7617H16.2422C15.7325 30.7617 15.3193 31.1748 15.3193 31.6846C15.3193 32.1944 15.7325 32.6074 16.2422 32.6074Z" fill="#1EC9FF"/>
<path d="M30.085 27.9932C30.085 27.4834 29.6718 27.0703 29.1621 27.0703H16.2422C15.7325 27.0703 15.3193 27.4834 15.3193 27.9932C15.3193 28.5029 15.7325 28.916 16.2422 28.916H29.1621C29.6718 28.916 30.085 28.5029 30.085 27.9932Z" fill="#1EC9FF"/>
<path d="M7.99805 56.54C7.99805 57.0498 8.41124 57.4629 8.9209 57.4629H23.0713C23.5809 57.4629 23.9941 57.0498 23.9941 56.54C23.9941 56.0303 23.5809 55.6172 23.0713 55.6172H8.9209C8.41124 55.6172 7.99805 56.0303 7.99805 56.54Z" fill="#1EC9FF"/>
<path d="M48.3594 49.3379C48.3594 48.7389 48.1478 48.2344 47.7246 47.8242C47.3079 47.4141 46.6016 47.043 45.6055 46.7109C44.2188 46.2878 43.2064 45.7376 42.5684 45.0605C41.9368 44.377 41.6211 43.5111 41.6211 42.4629C41.6211 41.3952 41.9303 40.5195 42.5488 39.8359C43.1738 39.1523 44.0299 38.7454 45.1172 38.6152V36.4766H46.5723V38.625C47.666 38.7747 48.5156 39.2337 49.1211 40.002C49.7331 40.7702 50.0391 41.8216 50.0391 43.1562H48.2422C48.2422 42.2383 48.0241 41.5091 47.5879 40.9688C47.1517 40.4284 46.5625 40.1582 45.8203 40.1582C45.0456 40.1582 44.4531 40.36 44.043 40.7637C43.6328 41.1608 43.4277 41.7174 43.4277 42.4336C43.4277 43.0977 43.6426 43.6283 44.0723 44.0254C44.5085 44.416 45.2214 44.7741 46.2109 45.0996C47.207 45.4186 47.9818 45.7734 48.5352 46.1641C49.0951 46.5482 49.5052 46.9974 49.7656 47.5117C50.0326 48.026 50.166 48.6283 50.166 49.3184C50.166 50.4186 49.834 51.304 49.1699 51.9746C48.5124 52.6452 47.5879 53.0423 46.3965 53.166V55.0312H44.9512V53.166C43.7402 53.0553 42.7897 52.6257 42.0996 51.877C41.416 51.1217 41.0742 50.0996 41.0742 48.8105H42.8809C42.8809 49.7155 43.1185 50.4121 43.5938 50.9004C44.069 51.3887 44.7428 51.6328 45.6152 51.6328C46.4681 51.6328 47.1387 51.4277 47.627 51.0176C48.1152 50.6074 48.3594 50.0475 48.3594 49.3379Z" fill="#1EC9FF"/>
</g>
<defs>
<clipPath id="clip0">
<rect width="63" height="63" fill="white"/>
</clipPath>
</defs>
</svg>
