<svg width="46" height="46" viewBox="0 0 46 46" fill="none" xmlns="http://www.w3.org/2000/svg">
<g clip-path="url(#clip0)">
<path d="M41.497 17.2786C41.4436 12.7936 39.8299 8.64123 36.9394 5.50774L37.7265 4.72063C37.9896 4.45746 37.9896 4.03075 37.7265 3.76767C37.4632 3.50449 37.0366 3.50449 36.7734 3.76767L35.987 4.55405C33.3941 2.16139 30.109 0.645855 26.4429 0.158858C26.0749 0.110068 25.7352 0.369201 25.6861 0.738133C25.6371 1.10706 25.8965 1.4459 26.2654 1.49486C28.3013 1.76532 30.2085 2.37766 31.9248 3.30134C30.7073 3.276 29.3533 3.47412 27.8954 3.90217C24.8217 4.80474 21.6641 6.62684 19.0836 8.96703C18.327 6.68057 16.838 5.15102 14.6398 4.40292C16.9877 2.51298 20.2106 1.41238 23.6744 1.34769C24.0466 1.34077 24.3427 1.03348 24.3357 0.661309C24.3287 0.293456 24.0285 0 23.6621 0C23.6578 0 23.6535 0 23.6493 8.98518e-05C19.371 0.0799681 15.4102 1.63288 12.7825 4.26059C12.6059 4.43715 12.5415 4.69682 12.615 4.93547C12.6885 5.17403 12.8879 5.35247 13.1332 5.3992C15.8512 5.91611 17.4623 7.53084 18.0584 10.3357C18.0865 10.468 18.1539 10.585 18.2471 10.6762C18.2536 10.6833 18.2596 10.6907 18.2664 10.6976C18.3858 10.8169 18.5387 10.8815 18.6948 10.8926C21.2205 11.661 22.9204 13.0666 23.8511 15.1663L16.755 22.2623V21.7336C16.755 20.7428 15.949 19.9367 14.9582 19.9367H6.29988C5.30908 19.9367 4.50293 20.7427 4.50293 21.7336V23.0183C4.50293 24.0091 5.30908 24.8153 6.29988 24.8153H6.35774C6.32054 24.9591 6.29862 25.1091 6.29862 25.2644V26.5491C6.29862 26.974 6.44759 27.3643 6.69495 27.6722C6.44759 27.9801 6.29862 28.3704 6.29862 28.7952V30.08C6.29862 30.5048 6.44759 30.895 6.69495 31.2029C6.44759 31.5109 6.29862 31.9012 6.29862 32.326V33.6108C6.29862 34.6016 7.10468 35.4076 8.09548 35.4076H8.15334C8.11614 35.5515 8.09422 35.7015 8.09422 35.8568V37.1415C8.09422 38.1323 8.90037 38.9385 9.89116 38.9385H9.94903C9.91183 39.0823 9.88991 39.2323 9.88991 39.3876V40.6723C9.88991 40.8277 9.91183 40.9776 9.94903 41.1215H9.89116C8.90037 41.1215 8.09422 41.9276 8.09422 42.9184V44.2031C8.09422 45.1939 8.90037 46.0001 9.89116 46.0001H10.6247C10.997 46.0001 11.2986 45.6985 11.2986 45.3262C11.2986 44.9539 10.997 44.6523 10.6247 44.6523H9.89116C9.64344 44.6523 9.44199 44.4509 9.44199 44.2031V42.9184C9.44199 42.6707 9.64344 42.4693 9.89116 42.4693H11.6868H15.3141C15.7651 43.3249 16.3982 44.07 17.1623 44.6523H13.317C12.9448 44.6523 12.6431 44.9539 12.6431 45.3262C12.6431 45.6985 12.9448 46.0001 13.317 46.0001H18.5493C18.8589 46.0001 19.1589 45.9186 19.4249 45.7693C19.9756 45.9188 20.5541 46.0001 21.1514 46.0001C21.7814 46.0001 22.3905 45.9094 22.9679 45.7437C23.244 45.9096 23.5599 46.0001 23.8902 46.0001H32.5484C33.5392 46.0001 34.3452 45.1939 34.3452 44.2031V42.9184C34.3452 42.4936 34.1963 42.1033 33.9489 41.7954C34.1964 41.4875 34.3452 41.0971 34.3452 40.6723V39.3876C34.3452 39.2228 34.3211 39.0639 34.2794 38.9121C35.1303 38.7709 35.7819 38.0318 35.7819 37.1415V35.8568C35.7819 34.9665 35.1304 34.2273 34.2795 34.0862C34.3212 33.9345 34.3453 33.7756 34.3453 33.6108V32.326C34.3453 31.496 33.779 30.7977 33.013 30.5921C33.0614 30.4297 33.0884 30.258 33.0884 30.08V28.7952C33.0884 27.8044 32.2822 26.9983 31.2914 26.9983H28.3085C27.9363 26.9983 27.6347 27.2999 27.6347 27.6722C27.6347 28.0445 27.9363 28.3461 28.3085 28.3461H31.2914C31.5392 28.3461 31.7406 28.5475 31.7406 28.7952V30.08C31.7406 30.3276 31.5392 30.529 31.2914 30.529H23.8904H22.6334C22.3858 30.529 22.1843 30.3276 22.1843 30.08V28.7952C22.1843 28.5475 22.3858 28.3461 22.6334 28.3461H25.6164C25.9887 28.3461 26.2903 28.0445 26.2903 27.6722C26.2903 27.2999 25.9887 26.9983 25.6164 26.9983H22.6334C21.6426 26.9983 20.8366 27.8044 20.8366 28.7952V30.08C20.8366 30.9099 21.4029 31.6083 22.1689 31.8137C22.1204 31.9763 22.0935 32.148 22.0935 32.326V32.8776C21.7857 32.8334 21.4714 32.8093 21.1517 32.8093C20.2284 32.8093 19.3493 33.0007 18.5508 33.3447V32.326C18.5508 31.9012 18.4018 31.5109 18.1544 31.2029C18.4018 30.895 18.5508 30.5048 18.5508 30.08V28.7952C18.5508 28.3704 18.4018 27.9801 18.1544 27.6722C18.4018 27.3643 18.5508 26.974 18.5508 26.5491V25.4202L26.2836 17.6874C28.5918 18.7461 30.0103 20.4163 30.5994 22.7565C30.6008 22.9271 30.6663 23.0974 30.7965 23.2276C30.8026 23.2337 30.8093 23.239 30.8156 23.2448C30.9094 23.3415 31.0311 23.4109 31.169 23.4378C33.9335 23.9795 35.4997 25.5482 36.0978 28.3745C36.149 28.6163 36.3284 28.8107 36.5655 28.8811C36.6286 28.8998 36.6931 28.9089 36.757 28.9089C36.9332 28.9089 37.1054 28.8397 37.2337 28.7116C39.9966 25.9487 41.5505 21.7815 41.497 17.2786ZM20.0279 9.93024C22.4526 7.74037 25.4055 6.03786 28.275 5.19532C31.099 4.36608 33.4986 4.49897 34.9996 5.54125L25.3236 15.2174C24.3816 12.6499 22.5526 10.924 20.0279 9.93024ZM5.85071 23.0183V21.7336C5.85071 21.486 6.05215 21.2845 6.29988 21.2845H14.9581C15.2057 21.2845 15.4072 21.4859 15.4072 21.7336V23.0183C15.4072 23.2661 15.2057 23.4675 14.9581 23.4675H8.09557H6.29988C6.05215 23.4675 5.85071 23.2661 5.85071 23.0183ZM16.7538 24.8153C17.0015 24.8153 17.2029 25.0167 17.2029 25.2644V26.5491C17.2029 26.7969 17.0015 26.9983 16.7538 26.9983H8.09557C7.84793 26.9983 7.64649 26.7969 7.64649 26.5491V25.2644C7.64649 25.0167 7.84793 24.8153 8.09557 24.8153H16.7538ZM17.2029 28.7952V30.08C17.2029 30.3276 17.0015 30.529 16.7538 30.529H8.09557C7.84793 30.529 7.64649 30.3276 7.64649 30.08V28.7952C7.64649 28.5475 7.84793 28.3461 8.09557 28.3461H16.7538C17.0015 28.3461 17.2029 28.5475 17.2029 28.7952ZM7.64649 33.6107V32.326C7.64649 32.0783 7.84793 31.8768 8.09557 31.8768H16.7538C17.0015 31.8768 17.2029 32.0783 17.2029 32.326V33.6108C17.2029 33.8584 17.0015 34.0599 16.7538 34.0599C15.835 34.0599 8.97387 34.0599 8.09557 34.0599C7.84793 34.0598 7.64649 33.8583 7.64649 33.6107ZM9.44208 37.1414V35.8567C9.44208 35.609 9.64353 35.4075 9.89125 35.4075H15.9102C15.4172 36.0525 15.0413 36.7906 14.812 37.5906C13.7677 37.5906 10.9133 37.5906 9.89125 37.5906C9.64353 37.5906 9.44208 37.3891 9.44208 37.1414ZM11.6869 41.1214C11.4392 41.1214 11.2378 40.92 11.2378 40.6722V39.3875C11.2378 39.1398 11.4392 38.9384 11.6869 38.9384H14.5746C14.5637 39.0925 14.5563 39.2476 14.5563 39.4045C14.5563 39.9983 14.6365 40.5736 14.7843 41.1213H11.6869V41.1214ZM32.9977 44.203C32.9977 44.4508 32.7963 44.6522 32.5486 44.6522H25.1407C25.9049 44.0699 26.538 43.3249 26.9891 42.4692H32.5486C32.7963 42.4692 32.9977 42.6706 32.9977 42.9184V44.203ZM32.9977 39.3875V40.6722C32.9977 40.92 32.7963 41.1214 32.5486 41.1214H27.5189C27.6668 40.5737 27.747 39.9984 27.747 39.4046C27.747 39.2477 27.7395 39.0926 27.7286 38.9385H32.5486C32.7963 38.9384 32.9977 39.1398 32.9977 39.3875ZM34.4343 35.8567V37.1414C34.4343 37.3891 34.2328 37.5906 33.9851 37.5906C32.6582 37.5906 28.8158 37.5906 27.4912 37.5906C27.2619 36.7906 26.886 36.0525 26.393 35.4075H33.9851C34.2328 35.4075 34.4343 35.6091 34.4343 35.8567ZM23.4413 32.326C23.4413 32.0783 23.6427 31.8768 23.8904 31.8768H31.2916H32.5486C32.7963 31.8768 32.9977 32.0783 32.9977 32.326V33.6108C32.9977 33.8584 32.7963 34.0599 32.5486 34.0599C31.7785 34.0599 25.9923 34.0599 25.0089 34.0599C24.5302 33.7134 24.0041 33.4288 23.4412 33.2197V32.326H23.4413ZM26.3993 39.4046C26.3993 42.2982 24.0453 44.6522 21.1517 44.6522C18.2582 44.6522 15.9041 42.2982 15.9041 39.4046C15.9041 36.5111 18.2582 34.1571 21.1517 34.1571C24.0452 34.157 26.3993 36.5111 26.3993 39.4046ZM18.0459 24.0186C17.8542 23.8198 17.6172 23.666 17.3516 23.5718L24.3375 16.5858C24.4348 16.9681 24.605 17.0658 24.9043 17.1603L18.0459 24.0186ZM26.2429 16.2042L35.9528 6.4944C36.9951 7.99546 37.1279 10.395 36.2988 13.219C35.4609 16.0725 33.7727 19.0082 31.6005 21.4253C30.7111 18.9876 28.9451 17.2674 26.2429 16.2042ZM37.078 26.8723C36.294 24.6248 34.7717 23.1264 32.5359 22.4006C34.8718 19.8219 36.6905 16.6686 37.5919 13.5986C38.02 12.1406 38.2181 10.7866 38.1928 9.56904C39.4375 11.8767 40.1163 14.5151 40.1493 17.2945C40.193 20.9748 39.0847 24.3961 37.078 26.8723Z" fill="#0CABDD"/>
</g>
<defs>
<clipPath id="clip0">
<rect width="46" height="46" fill="white"/>
</clipPath>
</defs>
</svg>
