<svg width="62" height="62" viewBox="0 0 62 62" fill="none" xmlns="http://www.w3.org/2000/svg">
<path d="M46.5 17.4375C47.0347 17.4375 47.4688 17.8725 47.4688 18.4062H49.4062C49.4062 17.1449 48.5935 16.0793 47.4688 15.6783V13.5625H45.5312V15.5H43.5938V18.4062C43.5938 20.0086 44.8977 21.3125 46.5 21.3125C47.0347 21.3125 47.4688 21.7475 47.4688 22.2812V23.25H46.5C45.9653 23.25 45.5312 22.815 45.5312 22.2812H43.5938C43.5938 23.5426 44.4065 24.6082 45.5312 25.0092V27.125H47.4688V25.1875H49.4062V22.2812C49.4062 20.6789 48.1023 19.375 46.5 19.375C45.9653 19.375 45.5312 18.94 45.5312 18.4062V17.4375H46.5Z" fill="#1EC9FF"/>
<path d="M40.6875 21.3125C41.2225 21.3125 41.6562 20.8788 41.6562 20.3438C41.6562 19.8087 41.2225 19.375 40.6875 19.375C40.1525 19.375 39.7188 19.8087 39.7188 20.3438C39.7188 20.8788 40.1525 21.3125 40.6875 21.3125Z" fill="#1EC9FF"/>
<path d="M52.3125 21.3125C52.8475 21.3125 53.2812 20.8788 53.2812 20.3438C53.2812 19.8087 52.8475 19.375 52.3125 19.375C51.7775 19.375 51.3438 19.8087 51.3438 20.3438C51.3438 20.8788 51.7775 21.3125 52.3125 21.3125Z" fill="#1EC9FF"/>
<path d="M46.5 9.6875C40.6245 9.6875 35.8438 14.4683 35.8438 20.3438C35.8438 26.2192 40.6245 31 46.5 31C52.3755 31 57.1562 26.2192 57.1562 20.3438C57.1562 14.4683 52.3755 9.6875 46.5 9.6875ZM46.5 29.0625C41.6921 29.0625 37.7812 25.1507 37.7812 20.3438C37.7812 15.5368 41.6921 11.625 46.5 11.625C51.3079 11.625 55.2188 15.5368 55.2188 20.3438C55.2188 25.1507 51.3079 29.0625 46.5 29.0625Z" fill="#1EC9FF"/>
<path d="M24.2188 51.3438H20.3438C19.2752 51.3438 18.4062 52.2127 18.4062 53.2812V55.2188C18.4062 56.2873 19.2752 57.1562 20.3438 57.1562H24.2188C25.2873 57.1562 26.1562 56.2873 26.1562 55.2188V53.2812C26.1562 52.2127 25.2873 51.3438 24.2188 51.3438ZM20.3438 55.2188V53.2812H24.2188L24.2197 55.2188H20.3438Z" fill="#1EC9FF"/>
<path d="M12.5938 51.3438H8.71875C7.65022 51.3438 6.78125 52.2127 6.78125 53.2812V55.2188C6.78125 56.2873 7.65022 57.1562 8.71875 57.1562H12.5938C13.6623 57.1562 14.5312 56.2873 14.5312 55.2188V53.2812C14.5312 52.2127 13.6623 51.3438 12.5938 51.3438ZM8.71875 55.2188V53.2812H12.5938L12.5947 55.2188H8.71875Z" fill="#1EC9FF"/>
<path d="M35.8438 51.3438H31.9688C30.9002 51.3438 30.0312 52.2127 30.0312 53.2812V55.2188C30.0312 56.2873 30.9002 57.1562 31.9688 57.1562H35.8438C36.9123 57.1562 37.7812 56.2873 37.7812 55.2188V53.2812C37.7812 52.2127 36.9123 51.3438 35.8438 51.3438ZM31.9688 55.2188V53.2812H35.8438L35.8447 55.2188H31.9688Z" fill="#1EC9FF"/>
<path d="M46.5 5.8125C45.5051 5.8125 44.5334 5.91422 43.5938 6.10506V5.8125C43.5938 3.14166 41.4208 0.96875 38.75 0.96875H5.8125C3.14166 0.96875 0.96875 3.14166 0.96875 5.8125V56.1875C0.96875 58.8583 3.14166 61.0312 5.8125 61.0312H38.75C41.4208 61.0312 43.5938 58.8583 43.5938 56.1875V34.5824C44.5334 34.7733 45.5051 34.875 46.5 34.875C54.5125 34.875 61.0312 28.3563 61.0312 20.3438C61.0312 12.3312 54.5125 5.8125 46.5 5.8125ZM14.5312 2.90625H30.0312V3.875C30.0312 4.40878 29.5972 4.84375 29.0625 4.84375H15.5C14.9653 4.84375 14.5312 4.40878 14.5312 3.875V2.90625ZM41.6562 56.1875C41.6562 57.7898 40.3523 59.0938 38.75 59.0938H5.8125C4.21019 59.0938 2.90625 57.7898 2.90625 56.1875V5.8125C2.90625 4.21019 4.21019 2.90625 5.8125 2.90625H12.5938V3.875C12.5938 5.47731 13.8977 6.78125 15.5 6.78125H29.0625C30.6648 6.78125 31.9688 5.47731 31.9688 3.875V2.90625H38.75C40.3523 2.90625 41.6562 4.21019 41.6562 5.8125V6.66016C40.2671 7.15325 38.9777 7.85075 37.8181 8.71875H4.84375V49.4062H39.7188V33.1855C40.3378 33.5139 40.9878 33.789 41.6562 34.0264V56.1875ZM17.4375 25.0926C18.538 24.8978 19.5755 24.3863 20.3864 23.6075C21.7068 24.6324 23.3207 25.1875 25.0209 25.1875H27.125V27.125C27.125 29.7958 24.9521 31.9688 22.2812 31.9688C19.6104 31.9688 17.4375 29.7958 17.4375 27.125V25.0926ZM17.453 23.0979C17.5353 20.4988 19.6627 18.4062 22.2812 18.4062C24.9521 18.4062 27.125 20.5792 27.125 23.25H25.0209C23.5125 23.25 22.0943 22.6629 21.0287 21.5963L20.3438 20.9105L19.0912 22.1631C18.6378 22.6174 18.0653 22.9274 17.453 23.0979ZM22.2812 36.4114L19.0233 33.1535L19.1144 33.1177C20.0599 33.6185 21.1372 33.9062 22.2812 33.9062C23.4253 33.9062 24.5026 33.6185 25.4481 33.1167L25.5392 33.1526L22.2812 36.4114ZM27.3304 34.1019L25.6622 39.1065L23.7557 37.6766L27.3304 34.1019ZM18.9003 39.1065L17.2321 34.1019L20.8058 37.6757L18.9003 39.1065ZM15.3624 34.6173L17.9122 42.2685L22.2812 38.9922L26.6503 42.2685L29.2001 34.6173L29.6428 34.7946C32.2323 35.8302 33.9053 38.3015 33.9053 41.0915V47.4688H10.6562V41.0915C10.6562 38.3024 12.3302 35.8302 14.9187 34.7946L15.3624 34.6173ZM30.3626 32.9956L27.2325 31.744C28.364 30.5311 29.0625 28.9104 29.0625 27.125V23.25C29.0625 19.5106 26.0197 16.4688 22.2812 16.4688C18.5428 16.4688 15.5 19.5106 15.5 23.25V27.125C15.5 28.9104 16.1985 30.5311 17.33 31.743L14.1999 32.9947C10.8703 34.3267 8.71875 37.5042 8.71875 41.0915V47.4688H6.78125V10.6562H35.6994C33.388 13.2302 31.9688 16.6199 31.9688 20.3438C31.9688 25.0829 34.2598 29.2873 37.7812 31.9416V47.4688H35.8438V41.0915C35.8438 37.5042 33.6922 34.3267 30.3626 32.9956ZM46.5 32.9375C39.556 32.9375 33.9062 27.2878 33.9062 20.3438C33.9062 13.3997 39.556 7.75 46.5 7.75C53.444 7.75 59.0938 13.3997 59.0938 20.3438C59.0938 27.2878 53.444 32.9375 46.5 32.9375Z" fill="#1EC9FF"/>
<path d="M8.71875 30.0312H10.6562V31.9688H8.71875V30.0312Z" fill="#1EC9FF"/>
<path d="M8.71875 26.1562H10.6562V28.0938H8.71875V26.1562Z" fill="#1EC9FF"/>
<path d="M8.71875 24.2188H10.6562V14.5312H14.5312V12.5938H8.71875V24.2188Z" fill="#1EC9FF"/>
</svg>
