<?xml version="1.0"?>
<svg xmlns="http://www.w3.org/2000/svg" xmlns:xlink="http://www.w3.org/1999/xlink" xmlns:svgjs="http://svgjs.com/svgjs" version="1.1" width="512" height="512" x="0" y="0" viewBox="0 0 512 512" style="enable-background:new 0 0 512 512" xml:space="preserve" class=""><g><g xmlns="http://www.w3.org/2000/svg"><path d="m465.789 119.504c-27.177-45.774-69.257-81.929-118.484-101.805-29.065-11.744-59.784-17.699-91.304-17.699-59.271 0-116.4 21.516-160.865 60.584-44.058 38.712-72.682 91.859-80.593 149.614 0 .003-.002.007-.002.01-1.565 10.979-2.358 22.287-2.358 33.608 0 .016.002.031.002.047.005 26.359 4.201 52.292 12.475 77.081 1.312 3.93 5.56 6.051 9.489 4.74 3.929-1.312 6.051-5.56 4.74-9.488-7.766-23.269-11.704-47.619-11.704-72.376-.023-4.789.16-9.593.463-14.372l13.961 16.325c6.197 7.302 15.221 11.489 24.758 11.489 6.197 0 12.022 2.414 16.4 6.796 4.381 4.385 6.793 10.219 6.793 16.425v39.944c0 9.353-3.603 18.109-10.144 24.657l-18.403 18.419c-4.174-6.777-8.01-13.784-11.438-20.926-1.793-3.734-6.272-5.31-10.007-3.515-3.734 1.792-5.308 6.272-3.515 10.007 5.042 10.501 10.899 20.735 17.4 30.408.017.026.034.052.051.078.001.002.002.003.003.005 16.779 25.038 37.759 46.468 62.382 63.771v47.71c0 11.557 9.402 20.958 20.958 20.958h238.305c11.556 0 20.958-9.401 20.958-20.958v-151.97c0-11.557-9.402-20.958-20.958-20.958h-49.868c-1.801-28.508-25.554-51.153-54.509-51.153h-29.55c-28.955 0-52.708 22.645-54.509 51.153h-49.868c-11.557 0-20.958 9.401-20.958 20.958v85.624c-17.796-13.782-33.36-30.005-46.426-48.427l20.563-20.582c9.372-9.38 14.533-21.902 14.533-35.259v-39.944c0-10.21-3.971-19.809-11.182-27.026-7.212-7.219-16.805-11.194-27.012-11.194-5.049 0-10.029-2.316-13.34-6.218l-23.14-27.057c8.046-52.947 34.638-101.54 75.15-137.136 41.727-36.662 95.34-56.852 150.965-56.852 20.986 0 41.588 2.826 61.527 8.394l-19.372 4.632c-11.883 2.785-20.183 13.28-20.183 25.521 0 5.104-3.286 9.465-8.167 10.847l-23.346 6.582c-3.987 1.124-6.308 5.268-5.184 9.254.932 3.307 3.941 5.467 7.215 5.467.674 0 1.359-.092 2.039-.283l23.354-6.585c11.239-3.183 19.089-13.578 19.089-25.281 0-5.24 3.539-9.729 8.639-10.926l42.26-10.106c43.33 18.031 80.598 49.535 105.727 89.294l-14.127 12.151c-5.281 4.541-8.311 11.142-8.311 18.11v4.464c0 7.375 3.323 14.218 9.115 18.773l.597.47c3.212 2.526 4.286 6.896 2.611 10.627l-8.615 19.192c-1.576 3.511-5.208 5.596-9.024 5.188-6.414-.682-12.684 1.194-17.667 5.285-4.474 3.672-7.395 8.717-8.368 14.357-1.805-.464-3.68-.704-5.594-.667l-13.699.229c-7.307.114-14.138 3.823-18.267 9.909l-5.674 8.329c-1.798 2.589-4.719 4.238-7.803 4.411l-19.582 1.069c-11.189.615-21.725-4.466-28.201-13.63l-25.818-36.29c-6.99-9.813-17.301-16.561-29.008-18.994-16.303-3.444-33.396 2.01-44.588 14.201l-15.227 16.384c-3.783 4.063-8.92 6.301-14.465 6.301h-22.921c-11.026 0-19.996-8.946-19.996-19.942v-7.013c0-7.1 4.4-13.61 10.976-16.212l8-3.201c12.391-4.962 20.397-16.791 20.397-30.137v-22.26c0-7.758 5.244-14.665 12.738-16.793l43.32-12.214c3.987-1.124 6.308-5.268 5.184-9.254-1.124-3.987-5.269-6.305-9.254-5.184l-43.333 12.218c-13.928 3.954-23.655 16.795-23.655 31.227v22.26c0 7.179-4.307 13.542-10.972 16.211l-7.972 3.19c-12.22 4.834-20.43 16.95-20.43 30.148v7.013c0 19.268 15.699 34.942 34.996 34.942h22.921c9.756 0 18.792-3.935 25.448-11.085l15.262-16.422c7.656-8.339 19.329-12.059 30.493-9.698 8.021 1.668 15.077 6.29 19.865 13.013l25.802 36.268c9.463 13.39 24.9 20.835 41.262 19.931l19.586-1.069c7.67-.431 14.883-4.48 19.333-10.889l5.72-8.396c1.374-2.026 3.71-3.308 6.104-3.345l13.735-.229c1.551-.003 3.035.553 4.15 1.645.964.945 1.555 2.167 1.71 3.496l.054 1.078c.003.068.015.133.02.2.309 10.382 8.825 18.738 19.274 18.738 5.672 0 10.76 3.575 12.674 8.935l27.657 76.159c-11.697 20.946-26.514 39.87-44.097 56.279-3.028 2.826-3.192 7.572-.366 10.601 1.477 1.583 3.478 2.383 5.484 2.383 1.833 0 3.67-.668 5.116-2.017 19.614-18.306 36.007-39.545 48.729-63.138 18.917-35.22 28.916-75.089 28.916-115.298.003-43.835-11.764-86.823-34.025-124.314zm-235.314 198.609c2.276-5.71 7.861-9.756 14.373-9.756h22.308c6.512 0 12.097 4.046 14.373 9.756zm-99.585 20.961c0-3.285 2.673-5.958 5.958-5.958h238.305c3.285 0 5.958 2.673 5.958 5.958v29.521c0 9.649-6.53 18.058-15.879 20.447l-101.471 25.941c-5.078 1.296-10.445 1.296-15.521 0l-101.472-25.941c-9.349-2.39-15.879-10.798-15.879-20.447v-29.521zm12.164 64.502 101.473 25.941c3.753.959 7.614 1.438 11.474 1.438s7.722-.479 11.475-1.438l101.472-25.941c4.479-1.145 8.58-3.099 12.163-5.68v64.611c-17.526 3.122-31.376 16.969-34.499 34.493h-181.223c-3.123-17.524-16.973-31.371-34.499-34.493v-23.033c0-.024 0-.047 0-.071v-41.507c3.584 2.581 7.684 4.535 12.164 5.68zm-6.205 93.424c-3.286 0-5.958-2.673-5.958-5.958v-13.176c9.239 2.604 16.534 9.897 19.14 19.134zm244.263-5.958c0 3.285-2.673 5.958-5.958 5.958h-13.181c2.605-9.236 9.9-16.529 19.139-19.134zm-139.886-209.082h29.55c20.681 0 37.712 15.923 39.48 36.153h-13.181c-2.681-14.078-15.074-24.756-29.92-24.756h-22.308c-14.847 0-27.239 10.678-29.92 24.756h-13.181c1.768-20.23 18.799-36.153 39.48-36.153zm174.478-27.044c-2.373 0-4.303-1.936-4.303-4.315 0-.064-.009-.126-.009-.19-.002-.063.003-.124 0-.187l-.853-16.934c.31-2.214 1.42-4.198 3.159-5.626 1.85-1.519 4.178-2.216 6.558-1.962 10.298 1.088 20.059-4.514 24.3-13.962l8.615-19.192c4.5-10.025 1.612-21.77-7.021-28.559l-.597-.47c-2.155-1.694-3.391-4.24-3.391-6.984v-4.464c0-2.593 1.126-5.049 3.091-6.737l12.056-10.369c18.018 33.281 27.508 70.721 27.508 108.856 0 31.936-6.742 63.627-19.559 92.64l-22.767-62.691c-4.027-11.278-14.792-18.854-26.787-18.854z" fill="#0cabdd" data-original="#000000" style="" class=""/><path d="m126.628 149.067c4.141 0 7.499-3.361 7.499-7.506s-3.357-7.506-7.499-7.506-7.499 3.361-7.499 7.506 3.357 7.506 7.499 7.506z" fill="#0cabdd" data-original="#000000" style="" class=""/><path d="m383.271 259.46c-4.142 0-7.499 3.36-7.499 7.506s3.357 7.506 7.499 7.506 7.499-3.361 7.499-7.506-3.357-7.506-7.499-7.506z" fill="#0cabdd" data-original="#000000" style="" class=""/><path d="m256.001 456.49c4.142 0 7.5-3.357 7.5-7.5v-6.982c0-4.143-3.358-7.5-7.5-7.5s-7.5 3.357-7.5 7.5v6.982c0 4.143 3.358 7.5 7.5 7.5z" fill="#0cabdd" data-original="#000000" style="" class=""/></g></g></svg>
