<svg width="64" height="64" viewBox="0 0 64 64" fill="none" xmlns="http://www.w3.org/2000/svg">
<path d="M52.2667 64C54.6231 64 56.5333 62.0898 56.5333 59.7334V11.7334C56.5333 9.37694 54.6231 7.46669 52.2667 7.46669H41.6C41.6 5.69938 40.1673 4.26669 38.4 4.26669L37.2192 4.22829C36.6931 1.75915 34.5079 -0.00290105 31.9833 0.00638418C29.4588 0.0156694 27.2866 1.79374 26.7787 4.26669H25.6C23.8327 4.26669 22.4 5.69938 22.4 7.46669H11.7333C9.37693 7.46669 7.46667 9.37694 7.46667 11.7334V59.7334C7.46667 62.0898 9.37693 64 11.7333 64H52.2667ZM24.5333 7.46669C24.5333 6.87759 25.0109 6.40003 25.6 6.40003H26.7787C27.8001 6.3973 28.6763 5.67096 28.8683 4.66776C29.1793 3.18614 30.4861 2.12521 32 2.12521C33.5139 2.12521 34.8207 3.18614 35.1317 4.66776C35.3241 5.67293 36.2033 6.39985 37.2267 6.40003H38.4C38.9891 6.40003 39.4667 6.87759 39.4667 7.46669V9.60003C39.4667 10.1891 38.9891 10.6667 38.4 10.6667H25.6C25.0109 10.6667 24.5333 10.1891 24.5333 9.60003V7.46669ZM25.6 12.8H38.4C40.1673 12.8 41.6 11.3673 41.6 9.60003H50.1333V50.1334H44.8C43.6218 50.1334 42.6667 51.0885 42.6667 52.2667V57.6H13.8667V9.60003H22.4C22.4 11.3673 23.8327 12.8 25.6 12.8ZM48.6251 52.2667L44.8 56.0918V52.2667H48.6251ZM9.60001 59.7334V11.7334C9.60001 10.5552 10.5551 9.60003 11.7333 9.60003V57.6C11.7333 58.7782 12.6885 59.7334 13.8667 59.7334H43.7333C44.0162 59.7333 44.2875 59.6209 44.4875 59.4208L51.9541 51.9542C52.1542 51.7542 52.2666 51.4829 52.2667 51.2V9.60003C53.4449 9.60003 54.4 10.5552 54.4 11.7334V59.7334C54.4 60.9116 53.4449 61.8667 52.2667 61.8667H11.7333C10.5551 61.8667 9.60001 60.9116 9.60001 59.7334Z" fill="#1EC9FF"/>
<path d="M31.4293 51.3654C31.1435 51.5467 30.8501 51.712 30.5515 51.8688L28.8661 47.936L31.9595 37.6395C32.1286 37.0751 31.8081 36.4806 31.2437 36.3115C30.6794 36.1424 30.0848 36.4629 29.9157 37.0272L28.5397 41.6H18.1334C17.5442 41.6 17.0667 42.0776 17.0667 42.6667C17.0667 43.2558 17.5442 43.7334 18.1334 43.7334V46.9632C17.6097 47.029 17.2157 47.4723 17.2118 48C17.2118 48.5891 17.6893 49.0667 18.2784 49.0667H19.7942L18.7062 51.9627C18.3414 51.7792 17.983 51.584 17.6395 51.3654C17.3175 51.1615 16.9111 51.1449 16.5736 51.3218C16.236 51.4988 16.0185 51.8423 16.0029 52.2232C15.9873 52.604 16.1761 52.9642 16.4982 53.168C18.9042 54.6812 21.6911 55.4784 24.5333 55.4667C26.5547 55.4689 28.556 55.0663 30.4192 54.2827H30.4256C31.1687 53.9725 31.8848 53.6011 32.5664 53.1723C33.0642 52.8571 33.2123 52.1981 32.8971 51.7003C32.5819 51.2025 31.9229 51.0545 31.4251 51.3696L31.4293 51.3654ZM27.8997 43.7334L26.9397 46.9334H20.2667V43.7334H27.8997ZM20.6859 52.7574L22.0725 49.0667H27.0304L28.5867 52.6934C26.0247 53.5252 23.2689 53.5482 20.6933 52.7595L20.6859 52.7574Z" fill="#1EC9FF"/>
<path d="M26.4992 36.2529C26.5546 36.2616 26.6106 36.2663 26.6666 36.2667C27.1905 36.2659 27.6361 35.8848 27.7184 35.3675C29.2815 27.8688 34.5315 21.6696 41.6704 18.8929C41.5657 19.2121 41.6205 19.5622 41.8177 19.8342C42.0149 20.1062 42.3307 20.267 42.6666 20.2667C43.0731 20.2687 43.4454 20.0396 43.6266 19.6758L44.6933 17.5425C44.956 17.0152 44.7416 16.3748 44.2144 16.1121L42.081 15.0454C41.5538 14.7835 40.9141 14.9984 40.6517 15.5254C40.4214 15.9968 40.5733 16.5659 41.008 16.8598C33.1088 19.8904 27.3033 26.7437 25.6128 35.0337C25.5213 35.615 25.918 36.1606 26.4992 36.2529Z" fill="#1EC9FF"/>
<path d="M32 7.46671C32.5891 7.46671 33.0667 6.98915 33.0667 6.40004C33.0667 5.81094 32.5891 5.33337 32 5.33337C31.4109 5.33337 30.9333 5.81094 30.9333 6.40004C30.9333 6.98915 31.4109 7.46671 32 7.46671Z" fill="#1EC9FF"/>
<path d="M41.2875 34.446C40.871 34.0296 40.1958 34.0296 39.7792 34.446L38.4 35.8252L37.0208 34.446C36.6023 34.0417 35.937 34.0475 35.5255 34.459C35.1141 34.8704 35.1083 35.5357 35.5126 35.9542L36.8918 37.3334L35.5126 38.7126C35.2353 38.9805 35.1241 39.377 35.2217 39.75C35.3193 40.1229 35.6105 40.4142 35.9835 40.5118C36.3564 40.6094 36.753 40.4982 37.0208 40.2209L38.4 38.8417L39.7792 40.2209C40.1978 40.6252 40.863 40.6194 41.2745 40.2079C41.6859 39.7965 41.6917 39.1312 41.2875 38.7126L39.9083 37.3334L41.2875 35.9542C41.7039 35.5377 41.7039 34.8625 41.2875 34.446Z" fill="#1EC9FF"/>
<path d="M17.6917 28.8001L16.3125 30.1793C16.0353 30.4471 15.9241 30.8437 16.0217 31.2166C16.1193 31.5895 16.4105 31.8808 16.7835 31.9784C17.1564 32.076 17.553 31.9648 17.8208 31.6875L19.2 30.3083L20.5792 31.6875C20.9977 32.0918 21.663 32.086 22.0745 31.6745C22.4859 31.2631 22.4917 30.5978 22.0875 30.1793L20.7083 28.8001L22.0875 27.4209C22.4917 27.0023 22.4859 26.337 22.0745 25.9256C21.663 25.5141 20.9977 25.5083 20.5792 25.9126L19.2 27.2918L17.8208 25.9126C17.4023 25.5083 16.737 25.5141 16.3255 25.9256C15.9141 26.337 15.9083 27.0023 16.3125 27.4209L17.6917 28.8001Z" fill="#1EC9FF"/>
<path d="M22.7125 22.0875C23.129 22.504 23.8042 22.504 24.2208 22.0875L25.6 20.7083L26.9792 22.0875C27.3977 22.4918 28.063 22.486 28.4745 22.0746C28.8859 21.6631 28.8917 20.9978 28.4874 20.5793L27.1082 19.2001L28.4874 17.8209C28.8917 17.4023 28.8859 16.7371 28.4745 16.3256C28.063 15.9142 27.3977 15.9084 26.9792 16.3126L25.6 17.6918L24.2208 16.3126C23.8022 15.9084 23.137 15.9142 22.7255 16.3256C22.3141 16.7371 22.3083 17.4023 22.7125 17.8209L24.0917 19.2001L22.7125 20.5793C22.2961 20.9958 22.2961 21.671 22.7125 22.0875Z" fill="#1EC9FF"/>
<path d="M41.6 24.5334C39.8327 24.5334 38.4 25.9661 38.4 27.7334C38.4 29.5008 39.8327 30.9334 41.6 30.9334C43.3673 30.9334 44.8 29.5008 44.8 27.7334C44.8 25.9661 43.3673 24.5334 41.6 24.5334ZM41.6 28.8001C41.0109 28.8001 40.5334 28.3225 40.5334 27.7334C40.5334 27.1443 41.0109 26.6668 41.6 26.6668C42.1891 26.6668 42.6667 27.1443 42.6667 27.7334C42.6667 28.3225 42.1891 28.8001 41.6 28.8001Z" fill="#1EC9FF"/>
</svg>
