<svg width="48" height="48" viewBox="0 0 48 48" fill="none" xmlns="http://www.w3.org/2000/svg">
<path d="M39.6098 25.3699C39.224 25.3699 38.9112 25.6827 38.9112 26.0685C38.9112 26.5576 38.5134 26.9554 38.0243 26.9554C37.5353 26.9554 37.1373 26.5576 37.1373 26.0685C37.1373 25.6826 36.8245 25.3699 36.4388 25.3699C36.053 25.3699 35.7402 25.6827 35.7402 26.0685C35.7402 27.3279 36.7649 28.3525 38.0243 28.3525C39.2836 28.3525 40.3083 27.3278 40.3083 26.0685C40.3083 25.6825 39.9955 25.3699 39.6098 25.3699Z" fill="#0CABDD"/>
<path d="M46.1666 25.4841L44.2005 24.8543C43.9487 24.7736 43.7502 24.5726 43.6697 24.3165C43.2553 22.9991 42.63 21.7622 41.8111 20.6402C41.4379 20.1288 41.0228 19.6405 40.5695 19.1756C40.8595 17.9031 41.0172 16.463 40.9968 15.2188C40.9675 13.439 40.6118 12.3951 39.9095 12.0272C39.5312 11.8288 38.3799 11.2262 32.1487 14.0786C32.0011 14.1461 31.8633 14.2293 31.7357 14.3246C31.3156 14.2117 30.8862 14.1072 30.4542 14.0135C30.4022 14.0021 30.3486 13.9921 30.2962 13.9811C30.8011 12.878 31.0959 11.68 31.1513 10.4432C31.1686 10.0577 30.8702 9.73127 30.4847 9.71412C30.1002 9.69499 29.7728 9.99518 29.7556 10.3807C29.6646 12.4142 28.821 14.3276 27.3804 15.7682C26.5197 16.6289 25.5119 17.2541 24.4378 17.6479C22.5751 17.3865 20.6778 17.3865 18.8151 17.6479C17.7409 17.2541 16.7332 16.6289 15.8724 15.7682C14.3355 14.2313 13.489 12.1878 13.489 10.0142C13.489 7.84052 14.3355 5.79715 15.8724 4.26021C17.4094 2.72318 19.4529 1.87671 21.6264 1.87671C23.7999 1.87671 25.8435 2.72318 27.3804 4.26021C27.9981 4.87784 28.5084 5.58265 28.8974 6.35487C29.0709 6.69949 29.491 6.83824 29.8356 6.66462C30.1802 6.49118 30.3188 6.07108 30.1453 5.72655C29.6894 4.82102 29.0916 3.99537 28.3685 3.27218C26.5676 1.47133 24.1733 0.479553 21.6265 0.479553C19.0798 0.479553 16.6854 1.47133 14.8846 3.27218C13.0837 5.07312 12.092 7.4674 12.092 10.0141C12.092 12.5608 13.0837 14.9552 14.8846 16.7561C15.4041 17.2755 15.9692 17.7222 16.5669 18.0965C16.5671 18.0965 16.5673 18.0964 16.5675 18.0964C16.1332 18.2093 15.7021 18.336 15.2758 18.4785C14.9099 18.6009 14.7125 18.9966 14.8348 19.3626C14.9571 19.7285 15.353 19.9259 15.7188 19.8037C19.5284 18.5301 23.7247 18.5301 27.5343 19.8037C27.6078 19.8282 27.6824 19.8399 27.7558 19.8399C28.048 19.8399 28.3205 19.655 28.4182 19.3626C28.5406 18.9967 28.3432 18.6009 27.9773 18.4785C27.551 18.336 27.1199 18.2092 26.6856 18.0964C26.6857 18.0964 26.6859 18.0965 26.6861 18.0965C27.284 17.7222 27.849 17.2755 28.3685 16.7561C28.828 16.2965 29.2337 15.7946 29.5859 15.2613C29.7785 15.2987 29.9696 15.3379 30.158 15.3788C30.4088 15.4332 30.6586 15.4917 30.9061 15.5531C30.8983 15.5835 30.8903 15.6138 30.8839 15.6446C30.5432 17.2614 30.5653 18.6912 30.9496 19.8943C31.295 20.9757 31.9183 21.8518 32.8021 22.4984C33.8438 23.2604 35.1013 23.5896 36.2405 23.5896C37.0978 23.5896 37.8882 23.403 38.4687 23.0742C39.1253 22.7023 39.6755 21.9187 40.1109 20.7421C40.3122 20.9771 40.503 21.2177 40.6828 21.4641C41.4119 22.4629 41.9685 23.5637 42.3371 24.7358C42.5536 25.4242 43.091 25.9659 43.7745 26.185L45.7406 26.8148C46.2565 26.9801 46.6031 27.4549 46.6031 27.9966V31.2567C46.6031 31.7984 46.2565 32.2733 45.7406 32.4386L42.5729 33.4532C42.0661 33.6157 41.6372 33.964 41.3652 34.434C40.1207 36.5848 38.164 38.3647 35.5492 39.7242C35.2472 39.8814 35.0379 40.1625 34.9749 40.4957L33.9604 45.8679C33.9323 46.0159 33.8027 46.1232 33.652 46.1232H30.3533C30.2026 46.1232 30.0729 46.0158 30.0449 45.8679L29.483 42.8989C29.3723 42.3147 28.8245 41.9267 28.2348 42.0161C26.8138 42.2309 25.3496 42.3398 23.8831 42.3398C22.792 42.3398 21.7149 42.2789 20.6815 42.1588C20.1101 42.0931 19.5778 42.4827 19.471 43.0468L18.937 45.8679C18.909 46.0159 18.7793 46.1232 18.6287 46.1232H15.3299C15.1792 46.1232 15.0496 46.0158 15.0212 45.8656L14.0443 40.7917C13.9814 40.4648 13.7761 40.1868 13.4807 40.029C9.02344 37.6496 6.6675 33.6742 6.6675 28.5329C6.6675 25.9353 7.23581 23.6383 8.35659 21.7056C9.40247 19.9019 10.93 18.4106 12.8968 17.273C13.2307 17.0798 13.3448 16.6525 13.1517 16.3184C12.9586 15.9845 12.5313 15.8706 12.1973 16.0635C8.38359 18.2696 6.08344 21.6732 5.45016 25.996V25.9959C5.38294 25.9898 5.31563 25.984 5.24859 25.977C5.26078 25.5106 5.17641 25.04 4.99266 24.5832C4.58738 23.5758 3.75487 22.8487 2.87166 22.7308C2.17566 22.6376 1.51331 22.9331 1.05366 23.5405C0.387188 24.4211 0.495844 25.1181 0.70425 25.5476C1.05609 26.2726 1.9605 26.7854 3.46134 27.1078C3.42009 27.1696 3.37472 27.2317 3.32503 27.294C2.43825 28.4062 1.3935 28.6521 0.715125 28.6752C0.318 28.6886 0 29.0075 0 29.4049V29.4083C0 29.8002 0.309281 30.1199 0.700875 30.1378C0.751031 30.1402 0.803438 30.1414 0.858 30.1414C1.71638 30.1414 3.09403 29.8248 4.41759 28.1652C4.62656 27.9032 4.79681 27.6268 4.92769 27.3413C5.0595 27.3562 5.18616 27.3689 5.30747 27.3802C5.30747 27.3799 5.30747 27.3797 5.30756 27.3794C5.28375 27.758 5.27053 28.1421 5.27053 28.5329C5.27053 31.4418 5.964 34.0354 7.33153 36.242C8.59247 38.2764 10.3978 39.9421 12.6992 41.1948L13.6489 46.1276C13.8016 46.9346 14.5086 47.5203 15.3299 47.5203H18.6287C19.45 47.5203 20.157 46.9346 20.3097 46.1276L20.7925 43.5768C21.7953 43.683 22.8335 43.7368 23.883 43.7368C25.323 43.7368 26.7613 43.6365 28.1631 43.4385L28.672 46.1277C28.8248 46.9347 29.5318 47.5204 30.3531 47.5204H33.6518C34.4732 47.5204 35.1802 46.9347 35.333 46.1274L36.3208 40.897C39.1116 39.4212 41.2151 37.4827 42.5743 35.1337C42.6723 34.9644 42.8231 34.8402 42.999 34.7838L46.1666 33.7691C47.2632 33.4177 48 32.4081 48 31.2566V27.9964C48 26.845 47.2632 25.8354 46.1666 25.4841ZM39.4948 17.1819C39.2259 19.4812 38.5047 21.4481 37.78 21.8585C36.9563 22.3251 35.0546 22.4152 33.6268 21.3707C32.1973 20.325 31.7215 18.4446 32.2507 15.9326C32.2507 15.9326 32.2507 15.9326 32.2507 15.9326C32.3039 15.6803 32.4832 15.462 32.7302 15.349C36.2274 13.7481 38.2437 13.2245 38.9928 13.2245C39.1058 13.2245 39.19 13.2364 39.2461 13.2583C39.4711 13.4981 39.7662 14.8614 39.4948 17.1819ZM1.96134 24.9376C1.88906 24.7886 2.05969 24.5265 2.16788 24.3835C2.33934 24.157 2.49731 24.1106 2.61666 24.1106C2.64188 24.1106 2.66541 24.1127 2.68697 24.1156C3.00816 24.1585 3.45816 24.5119 3.69656 25.1045C3.75272 25.244 3.82566 25.4751 3.84272 25.7633C2.87569 25.5629 2.12437 25.2741 1.96134 24.9376Z" fill="#0CABDD"/>
<path d="M22.3047 9.21347V6.71372C23.1667 6.77531 23.487 7.16934 23.7825 7.16934C24.1519 7.16934 24.3244 6.70144 24.3244 6.46744C24.3244 5.86397 23.1421 5.6054 22.3047 5.58075V5.24812C22.3047 5.10037 22.1199 4.9649 21.9352 4.9649C21.7258 4.9649 21.578 5.10037 21.578 5.24812V5.60522C20.4081 5.7284 19.2382 6.34415 19.2382 7.89581C19.2382 9.47212 20.4697 9.91547 21.578 10.3095V13.2035C20.3219 13.1049 19.9894 12.2429 19.583 12.2429C19.2752 12.2429 19.0166 12.6493 19.0166 12.9449C19.0166 13.5483 20.051 14.3734 21.578 14.398V14.7798C21.578 14.9275 21.7259 15.063 21.9352 15.063C22.12 15.063 22.3047 14.9275 22.3047 14.7798V14.3611C23.6347 14.1763 24.546 13.3389 24.546 11.8242C24.546 10.1495 23.3761 9.6075 22.3047 9.21347ZM21.6519 8.97956C20.9992 8.73328 20.4697 8.47472 20.4697 7.77281C20.4697 7.13241 20.9623 6.82453 21.6519 6.73837V8.97956ZM22.2307 13.1788V10.5804C22.8341 10.839 23.3144 11.1838 23.3144 11.9596C23.3144 12.6617 22.8957 13.0557 22.2307 13.1788Z" fill="#0CABDD"/>
</svg>
