<svg width="512" height="512" viewBox="0 0 512 512" fill="none" xmlns="http://www.w3.org/2000/svg">
<path d="M363.532 188.77C371.654 188.757 379.59 186.336 386.337 181.814C393.084 177.292 398.339 170.871 401.438 163.364C404.537 155.856 405.341 147.598 403.748 139.633C402.156 131.669 398.238 124.355 392.49 118.617C386.742 112.878 379.422 108.972 371.455 107.393C363.488 105.813 355.231 106.63 347.729 109.742C340.226 112.853 333.814 118.118 329.303 124.873C324.792 131.627 322.384 139.567 322.384 147.689C322.405 158.589 326.749 169.036 334.463 176.738C342.178 184.439 352.632 188.767 363.532 188.77V188.77ZM363.532 118.608C369.281 118.621 374.897 120.338 379.67 123.542C384.444 126.745 388.161 131.292 390.352 136.607C392.542 141.922 393.109 147.767 391.979 153.403C390.849 159.04 388.074 164.216 384.005 168.276C379.935 172.336 374.753 175.099 369.114 176.216C363.475 177.333 357.631 176.753 352.321 174.55C347.011 172.347 342.473 168.619 339.28 163.839C336.088 159.058 334.384 153.438 334.384 147.689C334.402 139.97 337.481 132.573 342.945 127.122C348.409 121.67 355.813 118.608 363.532 118.608V118.608Z" fill="#0CABDD"/>
<path d="M462.842 35H49.158C38.7848 35.0034 28.8365 39.1213 21.4955 46.4503C14.1545 53.7792 10.0204 63.7208 10 74.094V343.045C10.0204 353.418 14.1545 363.36 21.4955 370.689C28.8365 378.018 38.7848 382.136 49.158 382.139H186.569V465H154.089C152.498 465 150.972 465.632 149.846 466.757C148.721 467.883 148.089 469.409 148.089 471C148.089 472.591 148.721 474.117 149.846 475.243C150.972 476.368 152.498 477 154.089 477H363.878C365.469 477 366.995 476.368 368.121 475.243C369.246 474.117 369.878 472.591 369.878 471C369.878 469.409 369.246 467.883 368.121 466.757C366.995 465.632 365.469 465 363.878 465H325.431V382.139H462.842C473.215 382.136 483.164 378.018 490.504 370.689C497.845 363.36 501.98 353.418 502 343.045V74.094C501.98 63.7208 497.845 53.7792 490.504 46.4503C483.164 39.1213 473.215 35.0034 462.842 35V35ZM49.158 47H462.842C470.034 46.9997 476.932 49.8521 482.023 54.9315C487.115 60.0108 489.983 66.9023 490 74.094V306.829H448.32L428.82 233.168C426.462 223.346 420.872 214.602 412.946 208.339C405.021 202.076 395.221 198.659 385.12 198.636H300.9L240.925 175.777C240.869 175.756 240.813 175.735 240.756 175.716C237.801 174.698 234.656 174.356 231.551 174.715C228.447 175.075 225.463 176.127 222.819 177.793C221.795 178.43 220.825 179.15 219.919 179.947L183.058 139.665C181.979 138.509 180.488 137.826 178.908 137.764C177.329 137.702 175.788 138.265 174.622 139.333C173.455 140.4 172.757 141.884 172.679 143.463C172.601 145.042 173.15 146.588 174.205 147.765L213.4 190.6C213.19 191.428 213.03 192.268 212.923 193.115C212.923 193.154 212.913 193.193 212.909 193.231C212.306 198.197 213.496 203.215 216.264 207.382C219.032 211.549 223.197 214.591 228.009 215.96L284.728 236.383C292.113 239.047 299.831 240.676 307.662 241.224L307.673 306.833H22V74.094C22.0167 66.9023 24.8854 60.0108 29.9767 54.9315C35.068 49.8521 41.9662 46.9997 49.158 47V47ZM420.184 306.829L411.392 271.854C410.842 269.667 409.512 267.757 407.652 266.483C405.792 265.208 403.53 264.658 401.292 264.935C399.055 265.212 396.995 266.297 395.502 267.987C394.009 269.676 393.185 271.853 393.185 274.108V306.829H319.669L319.657 235.429C319.657 233.838 319.025 232.312 317.9 231.186C316.774 230.061 315.248 229.429 313.657 229.429C305.179 229.433 296.764 227.964 288.789 225.088L231.841 204.582C231.674 204.522 231.505 204.469 231.332 204.424C229.233 203.849 227.415 202.528 226.219 200.71C225.022 198.891 224.529 196.7 224.832 194.544C224.962 193.564 225.256 192.613 225.702 191.73L225.724 191.681C226.507 190.158 227.693 188.878 229.153 187.981C230.269 187.269 231.529 186.813 232.842 186.647C234.155 186.481 235.489 186.609 236.747 187.022L297.658 210.238C298.34 210.498 299.065 210.631 299.795 210.631H385.123C392.546 210.659 399.744 213.184 405.558 217.799C411.372 222.414 415.465 228.85 417.177 236.073C417.186 236.108 417.196 236.145 417.205 236.181L435.905 306.824L420.184 306.829ZM407.81 306.829H405.185V296.383L407.81 306.829ZM313.431 465H198.569V382.139H313.431V465ZM462.842 370.139H49.158C41.9662 370.139 35.068 367.287 29.9767 362.208C24.8854 357.128 22.0167 350.237 22 343.045V318.829H490V343.045C489.983 350.237 487.115 357.128 482.023 362.208C476.932 367.287 470.034 370.139 462.842 370.139V370.139Z" fill="#0CABDD"/>
<path d="M184.577 104.509H268.457C270.048 104.509 271.574 103.877 272.7 102.752C273.825 101.626 274.457 100.1 274.457 98.509C274.457 96.9177 273.825 95.3916 272.7 94.2664C271.574 93.1411 270.048 92.509 268.457 92.509H184.577C182.986 92.509 181.46 93.1411 180.334 94.2664C179.209 95.3916 178.577 96.9177 178.577 98.509C178.577 100.1 179.209 101.626 180.334 102.752C181.46 103.877 182.986 104.509 184.577 104.509V104.509Z" fill="#0CABDD"/>
<path d="M163.1 104.509H163.417C165.008 104.509 166.534 103.877 167.66 102.752C168.785 101.626 169.417 100.1 169.417 98.509C169.417 96.9177 168.785 95.3916 167.66 94.2664C166.534 93.1411 165.008 92.509 163.417 92.509H163.1C161.509 92.509 159.983 93.1411 158.857 94.2664C157.732 95.3916 157.1 96.9177 157.1 98.509C157.1 100.1 157.732 101.626 158.857 102.752C159.983 103.877 161.509 104.509 163.1 104.509V104.509Z" fill="#0CABDD"/>
<path d="M127.308 104.509H141.308C142.899 104.509 144.425 103.877 145.551 102.752C146.676 101.626 147.308 100.1 147.308 98.509C147.308 96.9177 146.676 95.3916 145.551 94.2664C144.425 93.1411 142.899 92.509 141.308 92.509H127.308C125.717 92.509 124.191 93.1411 123.065 94.2664C121.94 95.3916 121.308 96.9177 121.308 98.509C121.308 100.1 121.94 101.626 123.065 102.752C124.191 103.877 125.717 104.509 127.308 104.509V104.509Z" fill="#0CABDD"/>
<path d="M64.457 104.509H103.422C105.013 104.509 106.539 103.877 107.665 102.752C108.79 101.626 109.422 100.1 109.422 98.509C109.422 96.9177 108.79 95.3916 107.665 94.2664C106.539 93.1411 105.013 92.509 103.422 92.509H64.457C63.6691 92.509 62.8889 92.6642 62.1609 92.9657C61.433 93.2672 60.7715 93.7092 60.2144 94.2664C59.6572 94.8235 59.2153 95.4849 58.9138 96.2129C58.6122 96.9409 58.457 97.7211 58.457 98.509C58.457 99.2969 58.6122 100.077 58.9138 100.805C59.2153 101.533 59.6572 102.194 60.2144 102.752C60.7715 103.309 61.433 103.751 62.1609 104.052C62.8889 104.354 63.6691 104.509 64.457 104.509V104.509Z" fill="#0CABDD"/>
<path d="M268.457 146.429H268.389C266.792 146.438 265.263 147.08 264.138 148.214C263.014 149.349 262.385 150.883 262.389 152.48C262.394 154.077 263.031 155.608 264.162 156.736C265.293 157.864 266.826 158.497 268.423 158.497C270.02 158.497 271.553 157.864 272.684 156.736C273.815 155.608 274.452 154.077 274.457 152.48C274.461 150.883 273.832 149.349 272.708 148.214C271.583 147.08 270.054 146.438 268.457 146.429V146.429Z" fill="#0CABDD"/>
<path d="M245.577 146.429H215.865C214.274 146.429 212.748 147.061 211.622 148.186C210.497 149.312 209.865 150.838 209.865 152.429C209.865 154.02 210.497 155.546 211.622 156.672C212.748 157.797 214.274 158.429 215.865 158.429H245.577C247.168 158.429 248.694 157.797 249.82 156.672C250.945 155.546 251.577 154.02 251.577 152.429C251.577 150.838 250.945 149.312 249.82 148.186C248.694 147.061 247.168 146.429 245.577 146.429Z" fill="#0CABDD"/>
<path d="M64.457 158.429H153.882C155.473 158.429 156.999 157.797 158.125 156.672C159.25 155.546 159.882 154.02 159.882 152.429C159.882 150.838 159.25 149.312 158.125 148.186C156.999 147.061 155.473 146.429 153.882 146.429H64.457C62.8657 146.429 61.3396 147.061 60.2144 148.186C59.0892 149.312 58.457 150.838 58.457 152.429C58.457 154.02 59.0892 155.546 60.2144 156.672C61.3396 157.797 62.8657 158.429 64.457 158.429Z" fill="#0CABDD"/>
<path d="M186.416 215.709H202.178C203.769 215.709 205.295 215.077 206.421 213.952C207.546 212.826 208.178 211.3 208.178 209.709C208.178 208.118 207.546 206.592 206.421 205.466C205.295 204.341 203.769 203.709 202.178 203.709H186.416C184.825 203.709 183.299 204.341 182.173 205.466C181.048 206.592 180.416 208.118 180.416 209.709C180.416 211.3 181.048 212.826 182.173 213.952C183.299 215.077 184.825 215.709 186.416 215.709V215.709Z" fill="#0CABDD"/>
<path d="M163.308 209.709C163.308 208.118 162.676 206.592 161.551 205.466C160.425 204.341 158.899 203.709 157.308 203.709H96.953C95.3617 203.709 93.8356 204.341 92.7104 205.466C91.5851 206.592 90.953 208.118 90.953 209.709C90.953 211.3 91.5851 212.826 92.7104 213.952C93.8356 215.077 95.3617 215.709 96.953 215.709H157.308C158.899 215.709 160.425 215.077 161.551 213.952C162.676 212.826 163.308 211.3 163.308 209.709V209.709Z" fill="#0CABDD"/>
<path d="M64.457 215.709H74.141C75.7323 215.709 77.2585 215.077 78.3837 213.952C79.5089 212.826 80.141 211.3 80.141 209.709C80.141 208.118 79.5089 206.592 78.3837 205.466C77.2585 204.341 75.7323 203.709 74.141 203.709H64.457C62.8657 203.709 61.3396 204.341 60.2144 205.466C59.0892 206.592 58.457 208.118 58.457 209.709C58.457 211.3 59.0892 212.826 60.2144 213.952C61.3396 215.077 62.8657 215.709 64.457 215.709V215.709Z" fill="#0CABDD"/>
<path d="M253.383 268.65H268.457C270.048 268.65 271.574 268.018 272.7 266.893C273.825 265.767 274.457 264.241 274.457 262.65C274.457 261.059 273.825 259.533 272.7 258.407C271.574 257.282 270.048 256.65 268.457 256.65H253.383C251.792 256.65 250.266 257.282 249.14 258.407C248.015 259.533 247.383 261.059 247.383 262.65C247.383 264.241 248.015 265.767 249.14 266.893C250.266 268.018 251.792 268.65 253.383 268.65V268.65Z" fill="#0CABDD"/>
<path d="M230.337 268.65H230.57C232.161 268.65 233.687 268.018 234.813 266.893C235.938 265.767 236.57 264.241 236.57 262.65C236.57 261.059 235.938 259.533 234.813 258.407C233.687 257.282 232.161 256.65 230.57 256.65H230.337C228.746 256.65 227.22 257.282 226.094 258.407C224.969 259.533 224.337 261.059 224.337 262.65C224.337 264.241 224.969 265.767 226.094 266.893C227.22 268.018 228.746 268.65 230.337 268.65V268.65Z" fill="#0CABDD"/>
<path d="M111.194 262.65C111.194 264.241 111.826 265.767 112.951 266.893C114.077 268.018 115.603 268.65 117.194 268.65H208.953C210.544 268.65 212.07 268.018 213.196 266.893C214.321 265.767 214.953 264.241 214.953 262.65C214.953 261.059 214.321 259.533 213.196 258.407C212.07 257.282 210.544 256.65 208.953 256.65H117.194C115.603 256.65 114.077 257.282 112.951 258.407C111.826 259.533 111.194 261.059 111.194 262.65Z" fill="#0CABDD"/>
<path d="M64.457 268.65H93.838C95.4293 268.65 96.9555 268.018 98.0807 266.893C99.2059 265.767 99.838 264.241 99.838 262.65C99.838 261.059 99.2059 259.533 98.0807 258.407C96.9555 257.282 95.4293 256.65 93.838 256.65H64.457C62.8657 256.65 61.3396 257.282 60.2144 258.407C59.0892 259.533 58.457 261.059 58.457 262.65C58.457 264.241 59.0892 265.767 60.2144 266.893C61.3396 268.018 62.8657 268.65 64.457 268.65Z" fill="#0CABDD"/>
</svg>
